<?xml version="1.0" standalone="no"?>
<!DOCTYPE svg PUBLIC "-//W3C//DTD SVG 1.1//EN" "http://www.w3.org/Graphics/SVG/1.1/DTD/svg11.dtd" >
<svg xmlns="http://www.w3.org/2000/svg" xmlns:xlink="http://www.w3.org/1999/xlink" version="1.1">
<metadata></metadata>
<defs>
<font id="executivelight" horiz-adv-x="1171" >
<font-face units-per-em="2048" ascent="1597" descent="-451" />
<missing-glyph horiz-adv-x="614" />
<glyph unicode="&#xfb00;" horiz-adv-x="1417" d="M911 0v891h-501v-891h-131v891h-216v113h216v143q0 61 9 121.5t38.5 108.5t82 77t138.5 29q57 0 102 -12.5t86 -32.5q-10 -27 -19 -50.5t-20 -50.5q-35 16 -64.5 23.5t-70.5 7.5q-55 0 -85 -17.5t-45 -49t-18 -73.5t-3 -91v-133h501v143q0 61 9.5 121.5t38 107.5t82 77 t143.5 30q63 0 114.5 -16.5t92.5 -39.5q-10 -23 -20.5 -47t-20.5 -49q-35 16 -69 25.5t-81 9.5q-59 0 -91 -17.5t-46 -48t-17.5 -72.5t-3.5 -91v-133h285v-113h-285v-891h-131z" />
<glyph unicode="&#xfb01;" horiz-adv-x="1230" d="M911 0v891h-501v-891h-131v891h-216v113h216v143q0 68 9 138.5t56 119.5q72 78 203 78q63 0 110.5 -15.5t87.5 -37.5l-40 -95q-35 16 -68 24.5t-76 8.5q-51 0 -81.5 -17.5t-47.5 -45.5q-16 -29 -19 -75t-3 -93v-133h632v-1004h-131zM905 1221v215h142v-215h-142z" />
<glyph unicode="&#xfb02;" horiz-adv-x="1247" d="M911 1335q-53 4 -92 9.5t-75.5 10.5t-74.5 8t-85 3q-59 0 -94 -16.5t-52.5 -46t-22.5 -72.5t-5 -96v-131h297v-113h-297v-891h-131v891h-216v113h216v143q0 70 13 131t46 107.5t90 72t143 25.5q66 0 114 -6.5t97 -14.5t109.5 -16t150.5 -12v-1434h-131v1335z" />
<glyph unicode="&#xfb03;" horiz-adv-x="1863" d="M748 1436q-10 -27 -19.5 -51.5t-19.5 -49.5q-35 14 -66 22.5t-76 8.5q-59 0 -91 -17.5t-47 -48t-17 -72.5t-2 -91v-133h501v143q0 63 10.5 123.5t40 107.5t82 76t136.5 29q66 0 111.5 -15.5t86.5 -37.5l-41 -95q-35 16 -67.5 24.5t-75.5 8.5q-53 0 -84 -18.5t-46 -49 t-18.5 -72.5t-3.5 -91v-133h633v-1004h-131v891h-502v-891h-131v891h-501v-891h-131v891h-216v113h216v143q0 63 9 123.5t38.5 107.5t83 76t141.5 29q59 0 107.5 -13.5t89.5 -33.5zM1538 1221v215h141v-215h-141z" />
<glyph unicode="&#xfb04;" horiz-adv-x="1878" d="M1542 1335q-51 4 -91 9.5t-76 10.5t-73.5 8t-87.5 3q-57 0 -92 -16.5t-53 -46t-23.5 -72.5t-5.5 -96v-131h287v-113h-287v-891h-131v891h-499v-891h-131v891h-216v113h216v143q0 68 11 128t40.5 106t82 74t134.5 28q59 0 103 -12.5t85 -32.5q-10 -27 -19 -50.5t-20 -50.5 q-35 16 -64.5 23.5t-70.5 7.5q-55 0 -85 -17.5t-45 -49t-18 -73.5t-3 -91v-133h499v143q0 68 12.5 128t46 106t90 74t146.5 28q63 0 111.5 -6.5t97.5 -14.5t109.5 -16t150.5 -12v-1434h-131v1335z" />
<glyph horiz-adv-x="0" />
<glyph unicode="&#xd;" horiz-adv-x="0" />
<glyph horiz-adv-x="0" />
<glyph horiz-adv-x="0" />
<glyph unicode=" "  horiz-adv-x="614" />
<glyph unicode="&#x09;" horiz-adv-x="614" />
<glyph unicode="&#xa0;" horiz-adv-x="614" />
<glyph unicode="!" horiz-adv-x="722" d="M440 1454q-4 -274 -9 -482t-9 -351q-6 -168 -10 -291h-101q-8 123 -14 291q-12 285 -18 833h161zM268 0v201h187v-201h-187z" />
<glyph unicode="&#x22;" horiz-adv-x="1005" d="M322 860l-41 387v207h149v-207l-41 -387h-67zM614 860l-41 387v207h150v-207l-41 -387h-68z" />
<glyph unicode="#" horiz-adv-x="1191" d="M1157 899h-289l-65 -352h270v-107h-291l-82 -440h-120l82 440h-244l-82 -440h-121l82 440h-262v107h280l68 352h-262v109h280l80 430h121l-80 -430h244l82 430h121l-82 -430h270v-109zM504 899l-68 -352h246l66 352h-244z" />
<glyph unicode="$" d="M559 -215v188q-115 6 -193.5 43t-128 96.5t-72 139.5t-24.5 172l142 27q4 -164 65.5 -252t210.5 -99v613q-98 41 -166.5 85t-111.5 94t-62.5 107.5t-19.5 128.5q0 78 26.5 140.5t74.5 107.5t114.5 71t144.5 32v184h96v-182q111 -8 181.5 -47t110.5 -94.5t56.5 -121 t16.5 -126.5q-35 -6 -68.5 -10.5t-68.5 -10.5q-2 117 -52.5 192.5t-175.5 90.5v-535l117 -55q154 -72 215.5 -167t61.5 -228q0 -168 -101.5 -274.5t-292.5 -121.5v-188h-96zM655 666v-568q113 10 180.5 77t67.5 183q0 45 -7 83t-30.5 73t-64.5 66.5t-109 66.5zM559 866v488 q-102 -10 -159.5 -67.5t-57.5 -149.5q0 -98 54.5 -162t138.5 -98z" />
<glyph unicode="%" horiz-adv-x="1906" d="M1671 375q0 -197 -81 -292t-197 -95q-59 0 -109.5 23.5t-89.5 71.5t-60.5 120.5t-21.5 171.5q0 98 21.5 169.5t60.5 120t89 72t110 23.5q57 0 108 -24.5t89 -74t59.5 -121t21.5 -165.5zM1561 375q0 156 -47.5 222.5t-120.5 66.5q-74 0 -122 -67t-48 -222 q0 -156 48 -222.5t122 -66.5t121 66.5t47 222.5zM795 1065q0 -197 -81 -292t-198 -95q-59 0 -109.5 23.5t-89 71.5t-60 121t-21.5 171t21.5 170t60 120t89 71.5t109.5 23.5q57 0 108.5 -24.5t89.5 -73.5t59.5 -121t21.5 -166zM684 1065q0 156 -47 222.5t-121 66.5 t-122 -66.5t-48 -222.5t48 -222.5t122 -66.5t121 66.5t47 222.5zM557 -53l-88 49l874 1485l89 -51z" />
<glyph unicode="&#x26;" horiz-adv-x="1259" d="M1022 0q-27 39 -51.5 78t-50.5 80q-25 -35 -59 -68t-79 -57.5t-103 -40t-132 -15.5q-76 0 -143.5 27t-119 76t-82 119.5t-30.5 160.5q0 158 80 276t219 222l-55 84q-37 55 -69 116.5t-32 139.5q0 55 20.5 104.5t59.5 88.5t94.5 61.5t124.5 22.5q76 0 132.5 -22.5 t93.5 -59.5t55 -84t18 -95q0 -55 -14 -103t-45 -93t-82 -91t-125 -98l260 -403q8 33 10.5 65.5t2.5 61.5q0 39 -4.5 80t-10.5 76h129q6 -33 10.5 -74t4.5 -78q0 -84 -14.5 -149.5t-37.5 -118.5q47 -72 94.5 -144.5t94.5 -144.5h-164zM555 94q55 0 101 15.5t83 40t63.5 56.5 t43.5 64l-307 484q-117 -92 -171.5 -182.5t-54.5 -200.5q0 -133 69 -205t173 -72zM457 1192q0 -45 18.5 -88t46.5 -84l58 -86q111 76 153.5 134t42.5 132q0 66 -40 112t-118 46q-68 0 -114.5 -47t-46.5 -119z" />
<glyph unicode="'" horiz-adv-x="712" d="M322 860l-41 387v207h149v-207l-41 -387h-67z" />
<glyph unicode="(" horiz-adv-x="700" d="M326 537q0 -123 17 -237t55 -225.5t98.5 -223t144.5 -232.5l-88 -61q-178 231 -271.5 469.5t-93.5 509.5q0 270 93.5 508.5t271.5 470.5l88 -62q-84 -121 -144.5 -233.5t-98.5 -223t-55 -224t-17 -236.5z" />
<glyph unicode=")" horiz-adv-x="700" d="M373 537q0 123 -17.5 236.5t-55.5 224t-97.5 223t-143.5 233.5l86 62q180 -233 273.5 -470t93.5 -509t-93 -509t-274 -470l-86 61q84 121 143.5 232.5t97.5 223t55.5 225.5t17.5 237z" />
<glyph unicode="*" horiz-adv-x="911" d="M803 1255l-53 -92l-144 84q-16 10 -34.5 22.5t-34.5 22.5q-18 12 -35 25q2 -25 4 -47q2 -20 3 -42t1 -40v-164h-111v164q0 16 1 39.5t6 44.5q2 23 6 47q-18 -16 -39 -29q-16 -12 -35 -23.5t-33 -19.5l-145 -86l-54 94l146 84q16 10 36.5 18.5t37.5 16.5q20 8 41 19 q-20 10 -41 18q-16 8 -37 17.5t-37 19.5l-143 82l51 94l145 -84q16 -10 34.5 -22.5t35.5 -22.5q18 -12 37 -27q-4 23 -6 45q-4 20 -5.5 42t-1.5 40v168h111v-168q0 -18 -2 -39.5t-4 -42.5q-2 -23 -4 -45q16 12 35 25q16 10 34.5 22.5t34.5 22.5l146 86l53 -94l-146 -84 q-16 -10 -34.5 -19.5t-34.5 -17.5q-20 -8 -37 -16q16 -8 37 -17q16 -8 34.5 -16t34.5 -19z" />
<glyph unicode="+" horiz-adv-x="1347" d="M727 471v-426h-106v426h-433v104h433v429h106v-429h432v-104h-432z" />
<glyph unicode="," horiz-adv-x="710" d="M449 63q0 -84 -9.5 -142t-27 -99t-41 -71t-54.5 -56l-49 47q55 53 72.5 109.5t17.5 132.5v16h-98v207h189v-144z" />
<glyph unicode="-" horiz-adv-x="925" d="M172 526v119h582v-119h-582z" />
<glyph unicode="." horiz-adv-x="710" d="M260 0v207h189v-207h-189z" />
<glyph unicode="/" horiz-adv-x="897" d="M193 -29h-130l652 1512h129z" />
<glyph unicode="0" d="M1059 707q0 -166 -30 -301.5t-89 -230.5t-148.5 -147.5t-205.5 -52.5q-119 0 -207 52.5t-147.5 147.5t-89 230.5t-29.5 301.5q0 168 29.5 303t89 229t147.5 144.5t207 50.5q117 0 206 -51.5t148 -146.5t89 -229t30 -300zM913 707q0 299 -84 452.5t-243 153.5 q-160 0 -245 -153.5t-85 -452.5t85 -454t245 -155t243.5 155t83.5 454z" />
<glyph unicode="1" d="M172 121h395v1098q-31 -33 -76 -73t-96 -83t-103 -85t-99 -77l-76 98q51 39 111.5 88.5t122 103.5t120.5 110.5t113 109.5h123v-1290h352v-121h-887v121z" />
<glyph unicode="2" d="M180 0v125q104 86 216 198.5t247 262.5q66 72 105.5 133t62.5 116.5t31 105.5t8 99q0 121 -61.5 197t-192.5 76q-129 0 -199.5 -80t-70.5 -227q-37 4 -73 7t-73 7q0 86 28 161.5t80 132t129 88.5t179 32q100 0 175 -32t124 -85t73.5 -124t24.5 -146q0 -78 -15 -147 t-48 -134.5t-81 -131t-112 -136.5q-92 -102 -191.5 -197.5t-195.5 -181.5q41 0 74 1t63.5 1h60.5h66h373v-121h-807z" />
<glyph unicode="3" d="M1028 420q0 -209 -120 -328t-337 -119q-111 0 -191.5 34t-133.5 91.5t-80 132t-29 154.5l146 21q4 -141 74.5 -225.5t220.5 -84.5q141 0 223 80t82 232q0 98 -33 158.5t-85 95t-121 47t-138 12.5h-72v117h72q72 0 133 13t106.5 44t71 79t25.5 118q0 109 -68.5 165 t-185.5 56q-119 0 -189.5 -59.5t-79.5 -170.5l-143 17q4 72 34 133t83 105t129 70t170 26q92 0 163.5 -25t123 -70t78 -105t26.5 -132q0 -84 -25.5 -140.5t-63.5 -92t-83 -55t-82 -28.5v-4q41 -6 92 -25.5t97.5 -61.5t78 -109.5t31.5 -165.5z" />
<glyph unicode="4" d="M846 328v-328h-141v328h-562v139l580 944h123v-962h215v-121h-215zM705 449v704l-426 -704h426z" />
<glyph unicode="5" d="M1053 481q0 -119 -33 -213t-92.5 -159.5t-145.5 -100.5t-190 -35q-94 0 -170 28t-133.5 78t-94 118.5t-51.5 150.5l144 27q18 -135 99 -207t212 -72q68 0 124 24.5t98 72t65.5 116t23.5 158.5q0 172 -80.5 264t-226.5 92q-104 0 -181 -49t-122 -137h-113l39 774h736v-123 h-615l-29 -469q53 59 133 93t175 34q94 0 173 -32.5t136 -93t88 -147t31 -192.5z" />
<glyph unicode="6" d="M1059 459q0 -106 -31 -195.5t-88 -153t-141 -99.5t-191 -36q-125 0 -223 56.5t-158 173.5q-45 88 -63.5 198.5t-18.5 249.5q0 186 37 334t111 254q66 94 154 143.5t196 49.5q98 0 166 -30t113 -79t68.5 -111.5t29.5 -128.5l-143 -16q-12 123 -67.5 183.5t-172.5 60.5 q-70 0 -132.5 -39t-109.5 -117q-53 -86 -79.5 -193.5t-26.5 -261.5q47 90 135 146.5t213 56.5q98 0 176 -32.5t133 -92t84 -141.5t29 -180zM915 444q0 156 -76.5 248t-224.5 92q-61 0 -116.5 -23.5t-97.5 -67.5t-67.5 -105.5t-25.5 -136.5q0 -80 22.5 -144.5t62.5 -110.5 t97.5 -72t124.5 -26q63 0 118.5 21.5t95.5 64.5t63.5 107.5t23.5 152.5z" />
<glyph unicode="7" d="M1024 1298q-217 -281 -333 -602t-136 -696h-145q14 197 49 370t93 329.5t140 302t189 286.5h-703v123h848z" />
<glyph unicode="8" d="M1042 395q0 -92 -32.5 -168.5t-93 -132t-144.5 -87.5t-184 -32q-102 0 -186.5 32t-144.5 87.5t-93 132t-33 168.5q0 82 26.5 146.5t68.5 111.5t91.5 76t96.5 37v4q-45 12 -86 39t-72 65.5t-49.5 91t-18.5 117.5q0 74 30 138.5t83 111.5t127 74t160 27t158.5 -27t127 -74 t84 -111.5t29.5 -138.5q0 -66 -18.5 -118t-49 -91.5t-71.5 -66.5t-86 -39v-4q45 -8 95 -37t91 -75t67.5 -110.5t26.5 -146.5zM899 403q0 61 -21.5 114.5t-61.5 93.5t-97 63.5t-131 23.5t-131.5 -23.5t-97.5 -63.5t-61.5 -93t-21.5 -115q0 -139 87.5 -222t224.5 -83 q68 0 125 21.5t98 61.5t64.5 96t23.5 126zM844 1075q0 104 -68.5 171t-187.5 67t-188.5 -66.5t-69.5 -171.5q0 -111 66.5 -183.5t191.5 -72.5t190.5 72.5t65.5 183.5z" />
<glyph unicode="9" d="M121 987q0 94 31.5 176t90 142.5t141.5 94.5t187 34q111 0 198 -38t149 -118q63 -86 88.5 -200.5t25.5 -280.5q0 -113 -7 -203t-22.5 -164t-38 -134t-51.5 -112q-53 -96 -139 -152.5t-219 -56.5q-182 0 -282.5 98.5t-104.5 256.5l143 22q4 -129 66.5 -191.5t179.5 -62.5 q94 0 152.5 42t97.5 120t60.5 186.5t21.5 255.5q-45 -80 -129 -131t-213 -51q-96 0 -175 35t-134.5 96.5t-86 147.5t-30.5 188zM266 983q0 -156 79 -248t222 -92q141 0 223 91t82 253q0 70 -20.5 130.5t-59 103.5t-95 67.5t-128.5 24.5q-74 0 -130 -25.5t-94 -69.5 t-58.5 -104.5t-20.5 -130.5z" />
<glyph unicode=":" horiz-adv-x="710" d="M260 797v207h189v-207h-189zM260 0v207h189v-207h-189z" />
<glyph unicode=";" horiz-adv-x="710" d="M260 797v207h189v-207h-189zM449 63q0 -86 -9.5 -143t-27 -98t-41 -71t-54.5 -56l-47 47q59 55 75.5 110.5t16.5 131.5v16h-102v207h189v-144z" />
<glyph unicode="&#x3c;" horiz-adv-x="1347" d="M1163 82q-12 -23 -24.5 -46.5t-22.5 -45.5q-236 117 -469 232.5t-469 232.5v98q236 117 469.5 232.5t468.5 232.5l47 -94l-661 -320q-59 -29 -121 -55.5t-107 -42.5v-4q31 -10 73 -29.5t85 -40.5l127 -59q154 -72 302 -145.5t302 -145.5z" />
<glyph unicode="=" horiz-adv-x="1347" d="M188 635v104h971v-104h-971zM188 309v105h971v-105h-971z" />
<glyph unicode="&#x3e;" horiz-adv-x="1347" d="M231 -10l-24 46t-23 46l602 291q74 35 153 72.5t132 56.5v4q-43 16 -104.5 42.5t-120.5 55.5l-662 320q10 25 22.5 48t24.5 46l936 -465v-98z" />
<glyph unicode="?" horiz-adv-x="1093" d="M936 1114q0 -92 -29.5 -160.5t-79 -114.5t-110 -73t-121.5 -37v-389h-137v477q176 14 256 88t80 197q0 115 -60.5 187.5t-183.5 72.5q-113 0 -178.5 -64.5t-69.5 -179.5l-139 17q2 76 30.5 140t79 110.5t120 72t155.5 25.5q94 0 166.5 -30t122 -80t74 -116.5t24.5 -142.5 zM434 0v207h189v-207h-189z" />
<glyph unicode="@" horiz-adv-x="1681" d="M1415 -70q-37 -45 -93 -82.5t-126 -66.5t-148.5 -45.5t-160.5 -16.5q-141 0 -272.5 47.5t-231.5 141.5t-160.5 236.5t-60.5 330.5q0 211 57 380t161.5 289t248 184.5t315.5 64.5q143 0 255 -54.5t187.5 -146.5t115.5 -216t40 -265q0 -133 -29.5 -243t-82 -188.5 t-126 -121.5t-159.5 -43q-72 0 -118 39t-58 110h-4q-12 -27 -33 -53.5t-47.5 -48t-61.5 -34.5t-78 -13q-63 0 -109 27.5t-77 74.5t-45 109.5t-14 134.5q0 86 22.5 180t68.5 171t114.5 127t160.5 50q59 0 106.5 -34.5t63.5 -94.5h6q4 10 10.5 28.5t12.5 35.5q8 20 16 39h127 q-18 -53 -36.5 -130t-30.5 -157l-43 -260q-4 -29 -7.5 -57.5t-3.5 -51.5q0 -45 26 -66.5t54 -21.5q57 0 105.5 36t83.5 99.5t55.5 152.5t20.5 198q0 123 -32 230t-94.5 187t-154.5 125t-211 45q-150 0 -272.5 -58t-209.5 -164.5t-135.5 -258.5t-48.5 -336 q0 -160 49.5 -281.5t133.5 -205.5t197.5 -127t240.5 -43q68 0 135.5 14t130 39t113.5 57.5t84 71.5zM995 694q0 68 -26.5 121t-96.5 53q-63 0 -108 -42t-72.5 -103t-41 -130t-13.5 -120q0 -117 31.5 -178.5t103.5 -61.5q66 0 109 54.5t68.5 128t35.5 151.5t10 127z" />
<glyph unicode="A" horiz-adv-x="1148" d="M926 0l-97 336h-518l-96 -336h-152l445 1454h133l442 -1454h-157zM649 975q-23 74 -42 146.5t-34 146.5h-4q-16 -74 -34.5 -146.5t-40.5 -148.5l-148 -510h447z" />
<glyph unicode="B" horiz-adv-x="1251" d="M1090 420q0 -168 -84 -267.5t-222 -134.5q-37 -10 -75.5 -14t-85.5 -4h-402v1454h418q47 0 88 -6t78 -16q115 -35 183.5 -117t68.5 -211q0 -78 -23.5 -134.5t-60.5 -95t-81 -62.5t-85 -36v-4q49 -12 99 -37.5t91 -67.5t67 -103.5t26 -143.5zM942 426q0 135 -85 208 t-224 73h-268v-584h247q164 0 247 78t83 225zM612 827q141 0 219 70t78 195q0 115 -71.5 176t-206.5 61h-266v-502h247z" />
<glyph unicode="C" horiz-adv-x="1198" d="M1081 434q-8 -92 -35.5 -175t-81 -147.5t-134 -102.5t-195.5 -38q-121 0 -213 54.5t-154.5 152.5t-95.5 236.5t-33 306.5q0 172 33 312.5t97.5 240.5t157.5 154.5t216 54.5q100 0 176 -33t128 -89t82 -129t38 -153l-143 -26q-31 303 -283 303q-84 0 -150.5 -44 t-111.5 -125t-68.5 -198t-23.5 -264t23.5 -263t67.5 -198t109.5 -125t151.5 -43q141 0 213 95.5t84 263.5z" />
<glyph unicode="D" horiz-adv-x="1286" d="M1147 729q0 -123 -19.5 -235.5t-62.5 -204.5t-112.5 -160t-170.5 -100q-43 -14 -91 -21.5t-105 -7.5h-365v1454h383q49 0 93 -7t83 -20q100 -33 171 -102.5t114 -162.5t62.5 -204.5t19.5 -228.5zM997 727q0 119 -19.5 228.5t-65.5 192.5t-120.5 132t-187.5 49h-239v-1204 h237q111 0 186.5 47t121.5 128t66.5 190.5t20.5 236.5z" />
<glyph unicode="E" horiz-adv-x="1107" d="M221 0v1454h785v-127h-641v-516h516v-127h-516v-559h641v-125h-785z" />
<glyph unicode="F" horiz-adv-x="1064" d="M365 1327v-516h516v-127h-516v-684h-144v1454h785v-127h-641z" />
<glyph unicode="G" horiz-adv-x="1286" d="M989 0q-2 12 -4 34.5t-5 49.5t-5 55.5t-4 53.5h-4q-33 -92 -118 -157t-212 -65q-111 0 -203 50.5t-157.5 145.5t-101.5 235.5t-36 322.5q0 172 36 312.5t102.5 238.5t163 152.5t216.5 54.5q106 0 182 -34t126.5 -87t76 -120.5t31.5 -137.5l-139 -27q-16 129 -82 204 t-201 75q-74 0 -140.5 -38t-116.5 -115t-78.5 -195.5t-28.5 -280.5q0 -164 27.5 -283.5t76.5 -196.5t116.5 -114t147.5 -37q133 0 213 113t80 317v131h-313v125h448v-782h-94z" />
<glyph unicode="H" horiz-adv-x="1277" d="M913 0v684h-548v-684h-144v1454h144v-641h548v641h144v-1454h-144z" />
<glyph unicode="I" horiz-adv-x="593" d="M225 1454h144v-1454h-144v1454z" />
<glyph unicode="J" horiz-adv-x="1081" d="M879 428q0 -215 -95.5 -336t-308.5 -121q-84 0 -153.5 23.5t-119.5 70t-78 114t-28 157.5v28.5t2 32.5l144 17q-2 -18 -2 -30.5v-21.5q0 -139 60 -202.5t185 -63.5q248 0 248 318v1040h146v-1026z" />
<glyph unicode="K" horiz-adv-x="1183" d="M958 0l-417 733l-176 -221v-512h-144v1454h144v-737l563 737h178l-479 -612l503 -842h-172z" />
<glyph unicode="L" horiz-adv-x="1036" d="M221 0v1454h144v-1327h618v-127h-762z" />
<glyph unicode="M" horiz-adv-x="1583" d="M1227 0v977q0 78 1 151.5t5 180.5h-4q-18 -76 -33.5 -138.5t-40.5 -148.5l-303 -1022h-121l-301 1020q-12 43 -22.5 78t-18.5 67.5t-16 66.5t-19 77h-4q2 -106 3 -180t1 -152v-977h-133v1454h219l289 -1012q20 -70 32.5 -127t29.5 -135h4q8 39 14 71t14 62.5t16.5 62.5 t18.5 70l287 1008h217v-1454h-135z" />
<glyph unicode="N" horiz-adv-x="1343" d="M420 1454l467 -1030q29 -66 50 -117t44 -117h4q-2 39 -3 71t-2 62.5t-1 63.5v74v993h143v-1454h-196l-467 1024q-31 68 -52.5 120t-44.5 118h-4q2 -39 3 -70t2.5 -60.5t1.5 -62.5v-74v-995h-144v1454h199z" />
<glyph unicode="O" horiz-adv-x="1280" d="M1141 727q0 -174 -33 -314.5t-96.5 -238.5t-156.5 -150.5t-216 -52.5q-121 0 -214 52.5t-156.5 150.5t-96.5 238.5t-33 314.5t33 313.5t96.5 237.5t156.5 151.5t214 53.5q123 0 216 -53.5t156.5 -151.5t96.5 -237.5t33 -313.5zM991 727q0 166 -25.5 284.5t-71.5 195.5 t-110.5 113t-144.5 36q-78 0 -143.5 -36t-111.5 -113t-71.5 -195.5t-25.5 -284.5t25.5 -284.5t71.5 -195.5t111.5 -114t143.5 -37q80 0 144.5 37t110.5 114t71.5 195.5t25.5 284.5z" />
<glyph unicode="P" horiz-adv-x="1228" d="M1122 1051q0 -197 -115.5 -307.5t-340.5 -110.5h-301v-633h-144v1454h453q209 0 330 -115q57 -53 87.5 -126.5t30.5 -161.5zM973 1042q0 125 -76 206t-235 81h-297v-571h282q326 -1 326 284z" />
<glyph unicode="Q" horiz-adv-x="1280" d="M1139 727q0 -348 -119 -538.5t-315 -213.5v-63q0 -53 18 -73.5t57 -20.5q35 0 60.5 7t60.5 23l35 -84q-35 -20 -83 -35.5t-101 -15.5q-90 0 -129 44t-43 134l-7 84q-96 10 -176 63.5t-137 148t-89 229.5t-32 311q0 174 33 314.5t95.5 238.5t155.5 150.5t216 52.5 t216 -52.5t155.5 -150.5t95.5 -238.5t33 -314.5zM991 727q0 166 -25.5 284.5t-71.5 195.5t-110.5 113t-144.5 36q-78 0 -142.5 -36t-110.5 -113t-71.5 -195.5t-25.5 -284.5t24.5 -284.5t70.5 -195.5t110.5 -114t144.5 -37t144.5 37t110.5 114t71.5 195.5t25.5 284.5z" />
<glyph unicode="R" horiz-adv-x="1265" d="M1124 1065q0 -104 -28.5 -177t-77.5 -120q-35 -33 -74 -53.5t-86 -36.5l279 -678h-162l-254 649h-356v-649h-144v1454h465q88 0 166 -22.5t131 -63.5q68 -53 104.5 -131t36.5 -172zM975 1053q0 127 -73 201.5t-226 74.5h-311v-555h307q143 0 223 69t80 210z" />
<glyph unicode="S" horiz-adv-x="1218" d="M1081 371q0 -186 -121.5 -293t-345.5 -107q-121 0 -210 32t-147 89.5t-88 136t-32 172.5l146 35q4 -174 85 -257t253 -83q139 0 225 67.5t86 196.5q0 96 -54.5 161t-164.5 118l-246 117q-150 72 -218.5 157.5t-68.5 216.5q0 88 35 155t95.5 111t139 65.5t168.5 21.5 q113 0 194 -31t132 -82t74.5 -116.5t25.5 -135.5l-141 -35q-6 131 -74.5 203t-216.5 72q-125 0 -203.5 -58.5t-78.5 -162.5q0 -96 52 -150.5t146 -99.5l252 -119q162 -76 231.5 -169t69.5 -228z" />
<glyph unicode="T" horiz-adv-x="1044" d="M594 1327v-1327h-143v1327h-381v127h905v-127h-381z" />
<glyph unicode="U" horiz-adv-x="1286" d="M643 -29q-221 0 -334 129q-51 55 -72.5 136t-21.5 182v1036h143v-1014q0 -88 12.5 -150.5t45.5 -101.5q41 -49 98 -70.5t129 -21.5t129 21.5t98 70.5q33 39 44.5 101.5t11.5 150.5v1014h145v-1036q0 -100 -21.5 -181t-72.5 -137q-117 -129 -334 -129z" />
<glyph unicode="V" horiz-adv-x="1132" d="M653 0h-174l-422 1454h154l274 -989q14 -49 24.5 -88t20 -75t17.5 -72.5t18 -82.5h4q10 45 19.5 81t18.5 73t19.5 76t24.5 90l275 987h149z" />
<glyph unicode="W" horiz-adv-x="1683" d="M1257 0h-149l-207 911q-18 84 -33.5 164t-25.5 176h-4q-12 -96 -25.5 -174t-32.5 -166l-202 -911h-158l-314 1454h148l197 -956q16 -72 28.5 -148t22.5 -162h4q10 84 23.5 161t29.5 149l205 956h151l211 -956q16 -72 29.5 -148t24.5 -162h4q8 86 20.5 162t28.5 148 l199 956h143z" />
<glyph unicode="X" horiz-adv-x="1128" d="M74 0l409 752l-379 702h166l295 -553l295 553h158l-375 -692l412 -762h-166l-328 610l-330 -610h-157z" />
<glyph unicode="Y" horiz-adv-x="1099" d="M625 643v-643h-144v643l-444 811h174l344 -653l340 653h166z" />
<glyph unicode="Z" horiz-adv-x="1132" d="M123 0v137q29 47 84 138.5t122.5 206t142.5 240.5t144.5 242.5t128 213t95.5 151.5q-31 -2 -100.5 -2h-147.5h-440v127h843v-137l-723 -1192q31 0 90.5 1t131.5 1h524v-127h-895z" />
<glyph unicode="[" horiz-adv-x="706" d="M274 -410v1893h390v-109h-261v-1677h261v-107h-390z" />
<glyph unicode="\" horiz-adv-x="897" d="M53 1483h127l651 -1512h-126z" />
<glyph unicode="]" horiz-adv-x="706" d="M43 -410v107h260v1677h-260v109h389v-1893h-389z" />
<glyph unicode="^" horiz-adv-x="1347" d="M1174 616l-95 -49l-405 752h-4l-406 -752l-92 49l451 838h96z" />
<glyph unicode="_" horiz-adv-x="1024" d="M0 -215v94h1024v-94h-1024z" />
<glyph unicode="`" horiz-adv-x="452" d="M412 1219l-39 -66q-100 47 -198.5 96t-197.5 99q16 31 33 60.5t33 59.5z" />
<glyph unicode="a" horiz-adv-x="1085" d="M981 -16q-113 4 -164 48t-61 144q-53 -86 -135 -143.5t-197 -57.5q-133 0 -214 76t-81 211q0 219 268 301q27 8 64 17.5t77 20.5t75.5 20.5t58.5 17.5q49 16 65.5 32.5t16.5 45.5v22q0 78 -47.5 125t-167.5 47q-121 0 -176.5 -46t-59.5 -126l-135 15q4 129 100.5 201.5 t268.5 72.5q184 0 266 -78t82 -211v-487q0 -43 4 -72.5t16.5 -49t34 -30t55.5 -16.5zM754 569q-14 -12 -30.5 -20t-51.5 -21q-23 -8 -55.5 -17t-68.5 -20.5t-72 -21.5t-62 -20q-78 -29 -112 -76t-34 -113q0 -76 42 -123t128 -47q190 0 316 244v235z" />
<glyph unicode="b" horiz-adv-x="1157" d="M344 846q14 35 40 67.5t62.5 58t84 41t104.5 15.5q86 0 158.5 -36t125 -104.5t82 -166.5t29.5 -221q0 -117 -27.5 -214.5t-80 -166t-126 -106.5t-165.5 -38q-106 0 -181 55.5t-106 131.5h-4q0 -39 -2 -81t-6 -81h-129q4 76 7 158t3 157v1139h131v-465q0 -41 -1 -83 t-3 -60h4zM893 506q0 90 -18.5 164.5t-54.5 128t-87 83t-115 29.5q-68 0 -118.5 -31.5t-86.5 -87t-53.5 -130t-17.5 -160.5t17.5 -161t52 -130t87 -87t122.5 -32q123 0 197.5 101.5t74.5 312.5z" />
<glyph unicode="c" horiz-adv-x="1046" d="M940 301q-12 -59 -39 -117.5t-73 -104.5t-113.5 -75t-163.5 -29q-100 0 -179 40t-133.5 111t-83 168t-28.5 212q0 104 29.5 198.5t85 167t136.5 114.5t183 42q88 0 152.5 -25.5t108.5 -68.5t68.5 -96.5t35.5 -108.5l-131 -22q-16 92 -71.5 148t-166.5 56 q-66 0 -119 -29.5t-92 -83t-60.5 -129t-21.5 -167.5q0 -100 22.5 -177t61.5 -128.5t92.5 -78t112.5 -26.5q119 0 176 64.5t76 165.5z" />
<glyph unicode="d" horiz-adv-x="1150" d="M264 498q0 -203 79 -304.5t204 -101.5q70 0 120 33t83.5 89t50 131t16.5 157q0 84 -16.5 158.5t-51 130t-87 88t-121.5 32.5q-123 0 -200 -106t-77 -307zM827 0q-4 41 -5 78t-3 84h-4q-12 -35 -36.5 -69t-61.5 -59.5t-85 -41t-106 -15.5q-86 0 -158.5 37t-127 104.5 t-84 165t-29.5 220.5q0 125 30.5 222t85 164.5t129 102.5t160.5 35q106 0 179 -52t104 -130h4q0 20 -2 59t-2 80v469h131v-1139q0 -76 3 -157.5t7 -157.5h-129z" />
<glyph unicode="e" horiz-adv-x="1077" d="M930 272q-14 -53 -43 -105t-74 -94t-109.5 -69t-152.5 -27q-98 0 -177 37t-133.5 105.5t-84 166t-29.5 220.5q0 119 29.5 215t85 164.5t133.5 105.5t174 37q94 0 171 -37t129 -100.5t80.5 -149.5t28.5 -184q0 -29 -1 -52.5t-3 -45.5h-686q4 -168 76 -267.5t209 -99.5 q100 0 160.5 58.5t83.5 148.5zM817 573q-2 152 -72.5 245t-199.5 93q-55 0 -105.5 -23.5t-87.5 -67.5t-58.5 -106.5t-23.5 -140.5h547z" />
<glyph unicode="f" horiz-adv-x="774" d="M709 1335q-35 14 -66 22.5t-76 8.5q-55 0 -86.5 -15.5t-48.5 -43.5q-16 -29 -19 -76t-3 -94v-133h284v-113h-284v-891h-131v891h-216v113h216v143q0 68 9 138.5t56 119.5q72 78 207 78q59 0 107.5 -13.5t89.5 -33.5z" />
<glyph unicode="g" horiz-adv-x="1148" d="M264 506q0 -193 73 -300.5t195 -107.5q74 0 127.5 32t89 87t52 130t16.5 161q0 88 -18.5 161.5t-53 128t-86 84t-116.5 29.5q-123 0 -201 -102t-78 -303zM946 39q0 -98 -16.5 -185t-59.5 -153t-119.5 -104.5t-197.5 -38.5q-98 0 -168 24.5t-113 64.5t-64.5 91t-25.5 104 l131 17q8 -98 69.5 -145.5t170.5 -47.5q106 0 159.5 38t75 104.5t23.5 156.5t8 195h-4q-12 -31 -36.5 -61.5t-61.5 -56.5t-86 -42t-111 -16q-90 0 -162.5 37.5t-124 107.5t-79 166t-27.5 211q0 125 30.5 222t84 163.5t128 101.5t160.5 35q61 0 109.5 -17.5t82.5 -44 t57.5 -58t35.5 -60.5h4q0 41 2 81t6 75h127q-4 -78 -6 -159t-2 -157v-649z" />
<glyph unicode="h" horiz-adv-x="1132" d="M821 0v627q0 131 -47 207.5t-176 76.5q-55 0 -103.5 -22.5t-84 -65.5t-56 -105.5t-20.5 -142.5v-575h-131v1454h131v-442q0 -41 -1 -78t-3 -76h4q35 72 109.5 121t179.5 49q92 0 154.5 -29.5t101.5 -80t56 -120t17 -149.5v-649h-131z" />
<glyph unicode="i" horiz-adv-x="509" d="M188 0v1004h131v-1004h-131zM184 1221v215h142v-215h-142z" />
<glyph unicode="j" horiz-adv-x="524" d="M334 -92q0 -86 -8.5 -143.5t-44.5 -104.5q-35 -47 -86.5 -67.5t-116.5 -20.5q-57 0 -106.5 12.5t-88.5 32.5l41 102q35 -16 67 -23t70 -7q55 0 84 18.5t41.5 49t14.5 71.5t2 88v1088h131v-1096zM197 1221v215h141v-215h-141z" />
<glyph unicode="k" horiz-adv-x="1046" d="M842 0l-328 500l-178 -187v-313h-131v1454h131v-962l473 512h180l-385 -410l400 -594h-162z" />
<glyph unicode="l" horiz-adv-x="540" d="M205 1454h131v-1454h-131v1454z" />
<glyph unicode="m" horiz-adv-x="1429" d="M1116 0v682q0 90 -14 141q-12 39 -43 63.5t-84 24.5q-49 0 -92 -29.5t-66 -80.5q-16 -35 -20 -79t-4 -85v-637h-131v678q0 47 -4.5 88t-16.5 70q-33 76 -123 75q-53 0 -95 -33.5t-65 -84.5q-14 -35 -19 -82t-5 -97v-614h-131v690q0 76 -3 155t-7 159h126q4 -31 5.5 -62 t3.5 -68h4q8 27 26.5 54.5t47 49t67.5 36t90 14.5q86 0 140.5 -48t64.5 -108h4q29 66 86 111t156 45q86 0 136 -39t73 -94q16 -45 20 -96t4 -105v-694h-131z" />
<glyph unicode="n" horiz-adv-x="1138" d="M319 1004q4 -35 5.5 -71t3.5 -81h4q35 72 110.5 124t198.5 52q94 0 161.5 -39t106.5 -104q27 -45 37 -104.5t10 -125.5v-655h-131v633q0 49 -5 94t-21 78q-49 106 -195 106q-72 0 -133 -37.5t-96 -103.5q-18 -37 -29.5 -87t-11.5 -110v-573h-131v690q0 76 -2 154t-8 160 h126z" />
<glyph unicode="o" horiz-adv-x="1101" d="M973 502q0 -115 -30 -211t-84 -167t-132 -110t-176 -39t-176 39t-133.5 110t-84 167t-28.5 211t28.5 211t84 166.5t133.5 109.5t176 39t176 -39t132 -109.5t84 -166.5t30 -211zM834 502q0 193 -77 302t-206 109t-207 -110.5t-78 -300.5t78 -301t207 -111t206 109.5 t77 302.5z" />
<glyph unicode="p" horiz-adv-x="1148" d="M883 508q0 190 -75 296.5t-198 106.5q-68 0 -119 -30.5t-86.5 -85t-54 -129t-18.5 -162.5q0 -90 17.5 -166t53 -130t88 -85t121.5 -31q123 0 197 110.5t74 305.5zM330 158q0 -18 2 -61.5t2 -86.5v-420h-131v1096q0 76 -3 157t-7 161h129q4 -35 5 -74t3 -84h4 q31 72 106.5 127t188.5 55q86 0 158.5 -37t125 -106.5t81 -166.5t28.5 -216q0 -113 -27.5 -209t-79 -166t-124 -110t-164.5 -40q-111 0 -183.5 53.5t-109.5 127.5h-4z" />
<glyph unicode="q" horiz-adv-x="1148" d="M264 498q0 -201 80 -303.5t201 -102.5q70 0 121 31t84.5 86t50 130t16.5 163q0 90 -17.5 165.5t-52 130t-87 84t-123.5 29.5q-127 0 -200 -110t-73 -303zM815 158q-29 -72 -101.5 -127.5t-187.5 -55.5q-90 0 -163.5 39t-126 109t-81 167t-28.5 212t28.5 211t81 166.5 t125 109.5t162.5 39q59 0 107.5 -15.5t85.5 -42t61.5 -59t36.5 -65.5h4q2 45 3 84t5 74h129q-4 -80 -7 -161t-3 -157v-1096h-131v420q0 41 2 85t2 63h-4z" />
<glyph unicode="r" horiz-adv-x="788" d="M723 877q-25 8 -46.5 10t-53.5 2q-59 0 -113.5 -26.5t-87.5 -69.5q-47 -61 -67.5 -139.5t-20.5 -204.5v-449h-131v690q0 76 -3 156t-7 158h124q2 -16 3.5 -43t2.5 -55.5t2 -57.5t1 -51h4q41 104 120.5 165.5t188.5 61.5q29 0 47.5 -3t36.5 -7v-137z" />
<glyph unicode="s" horiz-adv-x="1046" d="M909 276q0 -143 -97 -222t-290 -79t-289 84t-104 224l135 24q10 -119 76 -167t188 -48q129 0 185.5 49t56.5 123q0 80 -50 118t-153 67l-143 38q-59 16 -108.5 36t-85 50.5t-56 75.5t-20.5 111q0 119 93 193.5t273 74.5q176 0 265 -75.5t98 -188.5l-131 -25 q-10 86 -61.5 130t-172.5 44q-113 0 -171 -38.5t-58 -104.5q0 -72 45 -105.5t141 -60.5l148 -39q66 -18 119 -41.5t89.5 -57.5t57 -80.5t20.5 -109.5z" />
<glyph unicode="t" horiz-adv-x="778" d="M739 20q-41 -20 -93 -32.5t-105 -12.5q-66 0 -115 20.5t-86 57.5q-47 49 -57.5 119t-10.5 137v582h-209v113h209v305l131 57v-362h279v-113h-279v-569q0 -49 4.5 -84t12.5 -58q14 -41 45 -64.5t92 -23.5q41 0 75 7t68 22z" />
<glyph unicode="u" horiz-adv-x="1142" d="M823 0q-4 31 -5 68.5t-3 83.5h-4q-35 -72 -106.5 -123.5t-192.5 -51.5q-152 0 -238 88.5t-86 235.5v703h131v-590q0 -84 9.5 -145.5t34 -100.5t66.5 -57.5t110 -18.5q121 0 195.5 86t74.5 254v572h131v-693q0 -74 3 -154.5t7 -156.5h-127z" />
<glyph unicode="v" horiz-adv-x="940" d="M532 0h-126l-353 1004h142l215 -629q20 -57 33.5 -106.5t25.5 -102.5h6q14 53 27.5 102t32.5 107l215 629h137z" />
<glyph unicode="w" horiz-adv-x="1316" d="M983 0h-133l-148 608q-12 53 -23 113.5t-17 120.5h-5q-8 -59 -20 -119.5t-25 -114.5l-141 -608h-139l-246 1004h133l141 -621q16 -66 25.5 -115t17.5 -106h5q8 57 17 106t24 115l139 621h145l139 -621q14 -61 23.5 -112.5t17.5 -110.5h5q10 59 19 110.5t24 112.5l141 621 h129z" />
<glyph unicode="x" horiz-adv-x="962" d="M750 0l-273 410l-268 -410h-160l361 518l-336 486h155l254 -379l248 379h156l-336 -484l362 -520h-163z" />
<glyph unicode="y" horiz-adv-x="929" d="M453 -201q-41 -113 -100.5 -170t-166.5 -57q-55 0 -102 14.5t-96 42.5q10 25 22.5 49.5t24.5 49.5q39 -20 68.5 -30.5t70.5 -10.5q63 0 99 32.5t59 100.5l61 182l-362 1002h147q35 -98 77 -214t81 -228.5t70.5 -213t48.5 -170.5h4q2 10 11 36t20.5 60.5t24.5 74.5t26 81 l194 574h142z" />
<glyph unicode="z" horiz-adv-x="997" d="M102 0v104l607 789q-29 -2 -62 -2q-29 -2 -61.5 -2h-67.5h-375v115h740v-103l-607 -788q25 0 54 2q25 0 54.5 1t61.5 1h457v-117h-801z" />
<glyph unicode="{" horiz-adv-x="704" d="M104 594q109 2 134 72q10 25 12 59.5t2 87.5v334q0 72 7 124t30 93q29 53 79 86t134 33h84v-113h-58q-98 0 -125 -63q-12 -27 -15 -64t-3 -92v-342q0 -106 -18 -158q-16 -45 -46 -70.5t-71 -41.5v-4q41 -16 70.5 -42t46.5 -69q18 -53 18 -160v-342q0 -55 3 -92t15 -63 q27 -63 125 -64h58v-113h-84q-84 0 -134.5 32t-78.5 85q-23 41 -30 94.5t-7 122.5v338q0 53 -2 87t-12 61q-23 66 -134 71v113z" />
<glyph unicode="|" horiz-adv-x="518" d="M199 -483v2203h118v-2203h-118z" />
<glyph unicode="}" horiz-adv-x="704" d="M600 481q-113 -6 -135 -71q-10 -27 -11 -61t-1 -87v-338q0 -70 -7.5 -122t-29.5 -93q-29 -53 -80 -86t-135 -33h-82v113h57q96 0 123 64q20 49 20 155v342q0 53 4.5 93t14.5 67q16 43 45 68.5t70 42.5v4q-41 16 -70 41.5t-45 70.5q-18 51 -19 158v342q0 106 -20 156 q-27 63 -123 63h-57v113h82q84 0 135 -33t80 -86q23 -41 30 -93t7 -124v-334q0 -53 1 -88t11 -59q25 -70 135 -72v-113z" />
<glyph unicode="~" horiz-adv-x="1345" d="M768 516q33 -23 59.5 -31t77.5 -8q47 0 90 31t101 125q23 -12 44 -24.5t44 -26.5q-23 -39 -51.5 -77t-63.5 -68.5t-77 -49t-93 -18.5q-41 0 -71.5 6t-64.5 21.5t-78 41t-107 66.5q-31 18 -58.5 28.5t-79.5 10.5q-47 0 -90 -32t-100 -126q-23 14 -44.5 26.5t-43.5 24.5 q23 39 51.5 78t63 69.5t76.5 49t93 18.5q39 0 71 -5t65.5 -19.5t76.5 -41t109 -69.5z" />
<glyph unicode="&#xa1;" horiz-adv-x="702" d="M268 0q4 274 8.5 482t8.5 352q6 168 12 290h100q4 -123 13 -290q4 -143 10 -351.5t10 -482.5h-162zM440 1454v-203h-186v203h186z" />
<glyph unicode="&#xa2;" d="M573 -156v138q-86 8 -155.5 50t-117.5 111.5t-74.5 161.5t-26.5 201q0 94 24.5 182t71.5 159t117.5 117t160.5 58v139h97v-137q76 -6 134 -31.5t98 -64.5t64.5 -91.5t34.5 -109.5l-131 -25q-39 184 -200 203v-807q51 6 88 26.5t61.5 51.5t38.5 70t21 80q35 -6 67.5 -12.5 t67.5 -10.5q-10 -55 -35 -109.5t-66 -100.5t-101 -75.5t-142 -35.5v-138h-97zM338 502q0 -90 18.5 -161t51 -121t74.5 -80.5t91 -39.5v803q-53 -12 -96 -45t-73.5 -85t-48 -120.5t-17.5 -150.5z" />
<glyph unicode="&#xa3;" d="M432 1047q0 -37 4 -85.5t8 -89.5h349v-104h-336q10 -70 17 -147.5t7 -139.5q0 -129 -22.5 -224t-104.5 -144q37 2 97.5 4t138.5 2h450v-119h-872v113q57 10 93 34.5t54.5 65.5t24.5 102.5t6 145.5q0 72 -9 153.5t-20 153.5h-172v104h160q-4 35 -7 78t-3 82q0 90 14.5 159 t46.5 122q49 86 137.5 128t208.5 42q90 0 157 -28t110 -74t64.5 -106.5t21.5 -127.5q0 -47 -13 -96l-127 -17q4 27 6.5 43.5t2.5 44.5q0 51 -11.5 95.5t-39 77t-71.5 51t-108 18.5q-72 0 -130 -27.5t-93 -93.5q-39 -71 -39 -196z" />
<glyph unicode="&#xa4;" horiz-adv-x="1200" d="M602 1122q78 0 146.5 -24.5t123.5 -69.5q8 6 25.5 24.5t38 38t37 36l22.5 22.5l74 -78l-119 -119q45 -55 69.5 -123.5t24.5 -146.5t-25.5 -148.5t-70.5 -123.5q8 -6 25.5 -24.5t37 -38t36 -37t22.5 -23.5l-74 -74l-121 121q-57 -45 -125.5 -70.5t-146.5 -25.5 t-147.5 25.5t-122.5 70.5l-63.5 -63.5t-59.5 -57.5l-78 74l125 123q-47 53 -71.5 123.5t-24.5 148.5q0 76 24.5 144.5t67.5 125.5l-121 119l78 78l121 -119q116 92 272 92zM281 680q0 -68 24.5 -127t67.5 -103t102.5 -69t126.5 -25q68 0 126 25t101 69t67 103t24 127 t-24 127t-67 102t-101 67.5t-126 24.5t-127 -24.5t-102 -67.5t-67.5 -102t-24.5 -127z" />
<glyph unicode="&#xa5;" d="M975 408h-313v-408h-144v408h-315v104h315v137h-315v105h293l-418 700h172q86 -147 171 -290.5t171 -291.5l338 582h164l-412 -700h293v-105h-313v-137h313v-104z" />
<glyph unicode="&#xa6;" horiz-adv-x="518" d="M199 907v813h118v-813h-118zM199 -381v813h118v-813h-118z" />
<glyph unicode="&#xa7;" horiz-adv-x="1214" d="M449 393q111 -111 192.5 -152.5t155.5 -41.5q72 0 118 46t46 122q0 74 -48.5 158.5t-150.5 189.5q-111 111 -193 152.5t-155 41.5q-72 0 -118 -46t-46 -122q0 -74 47.5 -159t151.5 -189zM352 303q-104 104 -169.5 208.5t-65.5 219.5q0 70 22.5 124t60.5 91t89 56.5 t106 19.5q20 0 45 -3t49 -13q-59 59 -97 116.5t-38 122.5q0 104 70 171t190 67q113 0 188 -61.5t75 -157.5q0 -14 -1.5 -30.5t-5.5 -27.5l-125 -14q4 16 4.5 26.5t0.5 22.5q0 55 -36 91t-96 36q-59 0 -97 -31.5t-38 -87.5q0 -47 20.5 -78.5t67.5 -80.5l287 -285 q104 -104 170 -208.5t66 -219.5q0 -72 -22.5 -126t-60.5 -91t-89.5 -55.5t-106.5 -18.5q-20 0 -45 3t-49 13q59 -59 97 -116.5t38 -122.5q0 -104 -69.5 -171t-190.5 -67q-113 0 -187.5 61.5t-74.5 157.5q0 14 1 30.5t5 27.5l125 14q-4 -16 -4 -26.5v-22.5q0 -55 35.5 -91 t95.5 -36q59 0 97 31.5t38 87.5q0 47 -20.5 78.5t-67.5 80.5z" />
<glyph unicode="&#xa8;" horiz-adv-x="413" d="M293 1208v203h145v-203h-145zM-25 1208v203h146v-203h-146z" />
<glyph unicode="&#xa9;" horiz-adv-x="1771" d="M1217 555q-8 -51 -29 -104.5t-61 -96.5t-102 -70.5t-151 -27.5q-86 0 -157.5 37t-121.5 101.5t-79 151.5t-29 187q0 98 29 185.5t81 152t125 102t163 37.5q78 0 136 -26.5t97 -67.5t60.5 -91t27.5 -97l-106 -15q-12 86 -62.5 143.5t-156.5 57.5q-59 0 -110.5 -26.5 t-89.5 -76.5t-60.5 -121t-22.5 -157q0 -90 22.5 -160.5t61.5 -120t90 -75t107 -25.5q113 0 165 62.5t64 152.5zM225 727q0 -139 51.5 -260t140.5 -211t208.5 -142.5t259.5 -52.5q139 0 259 52.5t209 142.5t140 211t51 260q0 137 -51 259t-140 212t-209 142.5t-259 52.5 t-259 -52.5t-209 -142.5t-140.5 -212t-51.5 -259zM129 727q0 158 58.5 296t161 239.5t239.5 160t297 58.5t298 -58.5t240.5 -160t160.5 -239.5t58 -296t-58 -296t-160.5 -240.5t-241 -161t-297.5 -58.5q-160 0 -297 58.5t-239.5 161t-161 240.5t-58.5 296z" />
<glyph unicode="&#xaa;" horiz-adv-x="829" d="M754 717q-152 2 -170 133q-39 -59 -112 -100t-153 -41q-96 0 -157.5 53t-61.5 156q0 82 50.5 136t160.5 85q10 2 41 10t67 16.5t65.5 14.5t37.5 8q39 10 50.5 23.5t11.5 31.5v19q0 57 -39 89.5t-133 32.5q-172 0 -179 -133l-106 11q4 100 79 156.5t206 56.5 q141 0 208.5 -60.5t67.5 -152.5v-349q0 -61 15.5 -84.5t66.5 -33.5zM584 1135q-12 -12 -27.5 -18.5t-44.5 -16.5q-8 -2 -33.5 -8.5t-54.5 -14.5t-55.5 -15t-36.5 -9q-70 -23 -96.5 -56.5t-26.5 -78.5q0 -53 32.5 -84t92.5 -31q70 0 138.5 43t111.5 129v160z" />
<glyph unicode="&#xab;" horiz-adv-x="944" d="M106 516l300 408l79 -56l-245 -352l245 -354l-79 -53zM430 516l299 408l78 -56l-246 -352l246 -354q-18 -14 -38.5 -26.5t-39.5 -26.5z" />
<glyph unicode="&#xac;" horiz-adv-x="1347" d="M1057 313v336h-881v113h995v-449h-114z" />
<glyph unicode="&#xad;" horiz-adv-x="925" d="M172 526v119h582v-119h-582z" />
<glyph unicode="&#xae;" horiz-adv-x="1771" d="M1223 944q0 -106 -46.5 -163.5t-111.5 -82.5l149 -428h-122q-33 102 -65 202.5t-62 205.5h-220v-408h-108v926h301q59 0 111.5 -17.5t90.5 -49t60.5 -79t22.5 -106.5zM1114 938q0 78 -46 120t-136 42h-187v-328h181q84 0 136 37t52 129zM1642 727q0 -158 -58 -296 t-160.5 -239.5t-241 -160t-297.5 -58.5q-160 0 -297 58.5t-239.5 160t-161 239.5t-58.5 296t58.5 296t161 239.5t239.5 160t297 58.5t298 -58.5t240.5 -160t160.5 -239.5t58 -296zM1544 727q0 137 -51 259t-140 212t-209 142.5t-259 52.5t-259 -52.5t-209 -142.5 t-140.5 -212t-51.5 -259q0 -139 51.5 -260t140.5 -211t208.5 -142.5t259.5 -52.5q139 0 259 52.5t209 142.5t140 211t51 260z" />
<glyph unicode="&#xaf;" horiz-adv-x="407" d="M-49 1249v103h506v-103h-506z" />
<glyph unicode="&#xb0;" horiz-adv-x="866" d="M743 1143q0 -66 -24.5 -122t-66.5 -98t-99 -67t-121 -25q-66 0 -122 25t-98 67t-66.5 98t-24.5 122q0 63 24.5 120.5t66.5 99.5t98.5 66.5t121.5 24.5q63 0 120.5 -24.5t99.5 -66.5t66.5 -99.5t24.5 -120.5zM223 1143q0 -43 16.5 -81t45 -66.5t66.5 -45t81 -16.5t81 16.5 t66.5 45t45 66.5t16.5 81t-16.5 81t-45 66.5t-66.5 45t-81 16.5t-81 -16.5t-66.5 -45t-45 -66.5t-16.5 -81z" />
<glyph unicode="&#xb1;" horiz-adv-x="1347" d="M727 547v-340h-106v340h-433v104h433v342h106v-342h432v-104h-432zM188 0v104h971v-104h-971z" />
<glyph unicode="&#xb2;" horiz-adv-x="794" d="M647 1221q0 -29 -3 -56.5t-16.5 -58.5t-39 -64.5t-68.5 -76.5q-47 -45 -109.5 -97.5t-123.5 -99.5q14 2 46 3t66 1h244v-98h-498v100q86 63 157 125t136 125q35 33 54.5 59.5t29.5 49t13.5 43t3.5 43.5q0 55 -35 87.5t-101 32.5t-107.5 -36.5t-41.5 -118.5l-107 10 q0 109 69 175.5t187 66.5q119 0 181.5 -62.5t62.5 -152.5z" />
<glyph unicode="&#xb3;" horiz-adv-x="835" d="M674 893q0 -106 -74 -168.5t-190 -62.5q-121 0 -189.5 56t-75.5 159l107 16q4 -63 43 -101t117 -38q70 0 111.5 37.5t41.5 103.5q0 70 -43 105.5t-141 35.5h-68v84h68q92 0 127 34t35 83q0 41 -35 72.5t-98 31.5q-66 0 -104 -31.5t-40 -86.5l-108 12q6 92 73.5 146.5 t176.5 54.5q119 0 181 -59.5t62 -135.5q0 -59 -32.5 -99t-79.5 -57v-6q53 -16 94 -65t41 -121z" />
<glyph unicode="&#xb4;" horiz-adv-x="413" d="M371 1468q16 -31 32.5 -60.5t32.5 -59.5q-98 -49 -196.5 -98.5t-198.5 -96.5l-39 66z" />
<glyph unicode="&#xb5;" horiz-adv-x="1142" d="M823 0q-2 27 -4 53q-2 23 -2 49.5v49.5h-4q-35 -78 -101.5 -128.5t-176.5 -50.5q-74 0 -131.5 34t-81.5 81h-5q0 -43 2 -88q0 -39 1.5 -88t1.5 -98v-240h-132v1430h132v-551q0 -180 47 -270.5t176 -90.5q117 0 191.5 87t74.5 265v560h131v-693q0 -76 3 -155.5t7 -155.5 h-129z" />
<glyph unicode="&#xb6;" horiz-adv-x="1249" d="M559 637q-88 0 -164 30.5t-132 84t-89 128t-33 164.5q0 88 33 163t89 129.5t132 85t164 30.5h483v-1745h-118v1643h-246v-1643h-119v930z" />
<glyph unicode="&#xb7;" horiz-adv-x="598" d="M190 434v207h189v-207h-189z" />
<glyph unicode="&#xb8;" horiz-adv-x="415" d="M168 0h72l-72 -115l2 -2q25 16 74 17q23 0 46 -8.5t42.5 -25t32 -39t12.5 -52.5q0 -72 -49 -114t-150 -42q-45 0 -88 16.5t-65 38.5l36 56q20 -16 50 -26.5t61 -10.5q39 0 61.5 18.5t22.5 48.5q0 39 -21.5 54.5t-50.5 15.5q-16 0 -32.5 -5t-32.5 -22q-10 8 -21.5 15.5 t-21.5 17.5z" />
<glyph unicode="&#xb9;" horiz-adv-x="702" d="M487 1423v-749h-108v610q-41 -41 -89 -85t-110 -93l-63 74q63 51 134 115.5t132 127.5h104z" />
<glyph unicode="&#xba;" horiz-adv-x="860" d="M760 1092q0 -182 -91 -281.5t-239 -99.5q-147 0 -237.5 99t-90.5 282q0 184 90.5 283.5t237.5 99.5t238.5 -99.5t91.5 -283.5zM651 1092q0 145 -60.5 218.5t-160.5 73.5q-98 0 -159.5 -73.5t-61.5 -218.5t61.5 -217t159.5 -72q100 0 160.5 72t60.5 217z" />
<glyph unicode="&#xbb;" horiz-adv-x="944" d="M537 109q-18 14 -39 26t-39 27l246 354l-246 352l78 56l299 -408zM215 109l-80 53l246 354l-246 352l80 56l299 -408z" />
<glyph unicode="&#xbc;" horiz-adv-x="1654" d="M1317 174v-174h-107v174h-323v74l332 502h98v-486h115v-90h-115zM1210 467v18q0 31 1 59.5t1 39.5h-4q-6 -12 -22.5 -40t-38.5 -63l-146 -217h209v203zM1268 1430q-221 -373 -438.5 -742t-436.5 -741l-88 49l875 1485q23 -12 44 -25.5t44 -25.5zM489 1423v-749h-106v610 q-41 -41 -90 -86t-111 -92l-63 74q63 51 134 115.5t132 127.5h104z" />
<glyph unicode="&#xbd;" horiz-adv-x="1654" d="M1475 547q0 -29 -3.5 -56.5t-16.5 -58.5t-38.5 -64.5t-70.5 -76.5q-47 -45 -109.5 -97.5t-124.5 -99.5q14 2 46 3t69 1h243v-98h-499v100q86 63 157.5 125t137.5 125q35 33 54 59.5t29.5 49t13.5 43t3 43.5q0 55 -36 88t-101 33q-66 0 -108 -37t-42 -119l-106 10 q0 109 69.5 175.5t186.5 66.5q121 0 183.5 -62.5t62.5 -152.5zM487 1423v-749h-106v610q-41 -41 -90 -86t-111 -92l-63 74q63 51 134 115.5t132 127.5h104zM389 -53l-88 49l877 1485l86 -51z" />
<glyph unicode="&#xbe;" horiz-adv-x="1656" d="M694 893q0 -106 -74.5 -168.5t-191.5 -62.5q-119 0 -187.5 56t-76.5 159q29 4 54.5 8t53.5 8q4 -63 42 -101t118 -38q70 0 111 37.5t41 103.5q0 70 -43 105.5t-142 35.5h-65v84h65q92 0 127 34t35 83q0 41 -36 72.5t-97 31.5q-63 0 -102 -31.5t-39 -86.5l-109 12 q4 92 72.5 146.5t175.5 54.5q59 0 105.5 -16.5t77 -43t47 -62.5t16.5 -73q0 -59 -34 -99t-81 -57v-6q55 -16 96 -65t41 -121zM1411 174v-174h-106v174h-324v74l332 502h98v-486h115v-90h-115zM1305 485q0 31 1 59.5t1 39.5h-4q-6 -12 -22.5 -40t-39.5 -63l-145 -217h209v221 zM1360 1430q-219 -373 -436 -742t-439 -741l-88 49q221 373 438.5 741.5t438.5 743.5z" />
<glyph unicode="&#xbf;" horiz-adv-x="1093" d="M162 338q0 92 29.5 160.5t77.5 116t108.5 74t122.5 36.5v389h137v-477q-176 -14 -256 -89t-80 -196q0 -115 60.5 -188.5t183.5 -73.5q115 0 179 64.5t71 181.5l137 -19q-2 -76 -31 -139t-79 -109t-119.5 -72t-155.5 -26q-94 0 -166 29t-121 79t-73.5 116.5t-24.5 142.5z M664 1454v-207h-189v207h189z" />
<glyph unicode="&#xc0;" horiz-adv-x="1148" d="M926 0l-97 336h-518l-96 -336h-152l445 1454h133l442 -1454h-157zM649 975q-23 74 -42 146.5t-34 146.5h-4q-16 -74 -34.5 -146.5t-40.5 -148.5l-148 -510h447zM774 1634l-39 -65q-100 47 -198.5 96t-196.5 98q16 31 32.5 60.5t33.5 60.5z" />
<glyph unicode="&#xc1;" horiz-adv-x="1148" d="M926 0l-97 336h-518l-96 -336h-152l445 1454h133l442 -1454h-157zM649 975q-23 74 -42 146.5t-34 146.5h-4q-16 -74 -34.5 -146.5t-40.5 -148.5l-148 -510h447zM725 1890q16 -31 32.5 -60.5t33.5 -60.5q-98 -49 -196.5 -98t-199.5 -96l-39 65z" />
<glyph unicode="&#xc2;" horiz-adv-x="1148" d="M926 0l-97 336h-518l-96 -336h-152l445 1454h133l442 -1454h-157zM649 975q-23 74 -42 146.5t-34 146.5h-4q-16 -74 -34.5 -146.5t-40.5 -148.5l-148 -510h447zM569 1745l-233 -170q-14 16 -28.5 32.5t-31.5 32.5q74 63 147 126t146 124q74 -61 148 -123.5t147 -126.5 q-16 -16 -30.5 -32.5t-28.5 -32.5z" />
<glyph unicode="&#xc3;" horiz-adv-x="1148" d="M926 0l-97 336h-518l-96 -336h-152l445 1454h133l442 -1454h-157zM649 975q-23 74 -42 146.5t-34 146.5h-4q-16 -74 -34.5 -146.5t-40.5 -148.5l-148 -510h447zM270 1628q0 86 50.5 140.5t128.5 54.5q39 0 68.5 -15.5t54 -34t48 -34t52.5 -15.5q78 0 82 88h86 q0 -86 -51.5 -140t-126.5 -54q-41 0 -71 15.5t-54.5 34t-48 33.5t-50.5 15q-37 0 -59.5 -23.5t-24.5 -64.5h-84z" />
<glyph unicode="&#xc4;" horiz-adv-x="1148" d="M926 0l-97 336h-518l-96 -336h-152l445 1454h133l442 -1454h-157zM649 975q-23 74 -42 146.5t-34 146.5h-4q-16 -74 -34.5 -146.5t-40.5 -148.5l-148 -510h447zM659 1624v203h146v-203h-146zM342 1624v203h145v-203h-145z" />
<glyph unicode="&#xc5;" horiz-adv-x="1148" d="M926 0l-97 336h-518l-96 -336h-152l445 1454h133l442 -1454h-157zM649 975q-23 74 -42 146.5t-34 146.5h-4q-16 -74 -34.5 -146.5t-40.5 -148.5l-148 -510h447zM770 1708q0 -41 -15.5 -77t-43 -63.5t-63.5 -43t-77 -15.5t-75.5 15.5t-62 43t-43 63.5t-15.5 77 q0 82 57 139.5t139 57.5q84 0 141.5 -57.5t57.5 -139.5zM451 1708q0 -51 34.5 -86t85.5 -35t86 35t35 86q0 49 -35.5 85t-85.5 36q-51 0 -85.5 -36t-34.5 -85z" />
<glyph unicode="&#xc6;" horiz-adv-x="1605" d="M754 0v344h-385l-160 -344h-156l688 1454h762v-125h-608v-518h483v-125h-483v-563h608v-123h-749zM754 1176l-326 -705h326v705z" />
<glyph unicode="&#xc7;" horiz-adv-x="1198" d="M592 -25q-111 8 -195 66.5t-141 156t-87 230.5t-30 293q0 172 33 312.5t97.5 240.5t157.5 154.5t216 54.5q100 0 176 -33t128 -89t82 -129t38 -153l-143 -26q-31 303 -283 303q-84 0 -150.5 -44t-111.5 -125t-68.5 -198t-23.5 -264t23.5 -263t67.5 -198t109.5 -125 t151.5 -43q141 0 213 95.5t84 263.5l145 -21q-8 -90 -34.5 -171t-77.5 -142.5t-127 -100t-180 -47.5l-60 -98v-2q27 16 74 16t90 -32.5t43 -92.5q0 -72 -49 -113.5t-150 -41.5q-45 0 -88 16.5t-65 38.5q10 14 19 27.5t20 27.5q43 -37 110 -36q39 0 61.5 18t22.5 49 q0 39 -21.5 54.5t-50.5 15.5q-41 0 -65 -27q-12 8 -22.5 15.5t-22.5 17.5z" />
<glyph unicode="&#xc8;" horiz-adv-x="1107" d="M221 0v1454h785v-127h-641v-516h516v-127h-516v-559h641v-125h-785zM831 1640l-38 -65q-100 47 -198.5 96t-197.5 98q16 31 32.5 61t33.5 60z" />
<glyph unicode="&#xc9;" horiz-adv-x="1107" d="M221 0v1454h785v-127h-641v-516h516v-127h-516v-559h641v-125h-785zM756 1890q16 -31 32.5 -60.5t32.5 -60.5q-98 -49 -196.5 -98t-198.5 -96l-39 65z" />
<glyph unicode="&#xca;" horiz-adv-x="1107" d="M221 0v1454h785v-127h-641v-516h516v-127h-516v-559h641v-125h-785zM606 1747l-233 -170q-14 16 -28.5 32.5t-31.5 32.5q74 63 146.5 126t146.5 124q74 -61 147.5 -123.5t147.5 -126.5q-16 -16 -30.5 -32.5t-28.5 -32.5z" />
<glyph unicode="&#xcb;" horiz-adv-x="1107" d="M221 0v1454h785v-127h-641v-516h516v-127h-516v-559h641v-125h-785zM690 1624v203h146v-203h-146zM373 1624v203h145v-203h-145z" />
<glyph unicode="&#xcc;" horiz-adv-x="593" d="M225 1454h144v-1454h-144v1454zM510 1640l-39 -65q-100 47 -198.5 96t-196.5 98q16 31 32.5 61t32.5 60z" />
<glyph unicode="&#xcd;" horiz-adv-x="593" d="M225 1454h144v-1454h-144v1454zM453 1890q16 -31 32.5 -60.5t32.5 -60.5q-98 -49 -196.5 -98t-198.5 -96l-39 65z" />
<glyph unicode="&#xce;" horiz-adv-x="593" d="M225 1454h144v-1454h-144v1454zM295 1747l-234 -170q-14 16 -28.5 32.5t-30.5 32.5q74 63 146.5 126t146.5 124q74 -61 147.5 -123.5t147.5 -126.5q-16 -16 -30.5 -32.5t-29.5 -32.5z" />
<glyph unicode="&#xcf;" horiz-adv-x="593" d="M225 1454h144v-1454h-144v1454zM383 1624v203h145v-203h-145zM66 1624v203h145v-203h-145z" />
<glyph unicode="&#xd0;" horiz-adv-x="1282" d="M1143 729q0 -150 -29 -283t-94.5 -232t-172 -156.5t-263.5 -57.5h-369v674h-164v108h164v672h387q152 0 255.5 -61.5t166.5 -163t91 -232.5t28 -268zM995 727q0 119 -20.5 228.5t-66.5 192.5t-121.5 132t-186.5 49h-240v-547h267v-108h-267v-551h238q111 0 187.5 47 t122.5 129t66.5 191.5t20.5 236.5z" />
<glyph unicode="&#xd1;" horiz-adv-x="1343" d="M420 1454l467 -1030q29 -66 50 -117t44 -117h4q-2 39 -3 71t-2 62.5t-1 63.5v74v993h143v-1454h-196l-467 1024q-31 68 -52.5 120t-44.5 118h-4q2 -39 3 -70t2.5 -60.5t1.5 -62.5v-74v-995h-144v1454h199zM399 1628q0 86 50.5 140.5t128.5 54.5q39 0 68.5 -15.5t54 -34 t48 -34t52.5 -15.5q78 0 82 88h86q0 -86 -51.5 -140t-126.5 -54q-41 0 -71 15.5t-54.5 34t-48 33.5t-50.5 15q-37 0 -59.5 -23.5t-24.5 -64.5h-84z" />
<glyph unicode="&#xd2;" horiz-adv-x="1280" d="M1141 727q0 -174 -33 -314.5t-96.5 -238.5t-156.5 -150.5t-216 -52.5q-121 0 -214 52.5t-156.5 150.5t-96.5 238.5t-33 314.5t33 313.5t96.5 237.5t156.5 151.5t214 53.5q123 0 216 -53.5t156.5 -151.5t96.5 -237.5t33 -313.5zM991 727q0 166 -25.5 284.5t-71.5 195.5 t-110.5 113t-144.5 36q-78 0 -143.5 -36t-111.5 -113t-71.5 -195.5t-25.5 -284.5t25.5 -284.5t71.5 -195.5t111.5 -114t143.5 -37q80 0 144.5 37t110.5 114t71.5 195.5t25.5 284.5zM858 1640l-39 -65q-100 47 -198.5 96t-196.5 98q16 31 32.5 61t32.5 60z" />
<glyph unicode="&#xd3;" horiz-adv-x="1280" d="M1141 727q0 -174 -33 -314.5t-96.5 -238.5t-156.5 -150.5t-216 -52.5q-121 0 -214 52.5t-156.5 150.5t-96.5 238.5t-33 314.5t33 313.5t96.5 237.5t156.5 151.5t214 53.5q123 0 216 -53.5t156.5 -151.5t96.5 -237.5t33 -313.5zM991 727q0 166 -25.5 284.5t-71.5 195.5 t-110.5 113t-144.5 36q-78 0 -143.5 -36t-111.5 -113t-71.5 -195.5t-25.5 -284.5t25.5 -284.5t71.5 -195.5t111.5 -114t143.5 -37q80 0 144.5 37t110.5 114t71.5 195.5t25.5 284.5zM780 1890q16 -31 32.5 -60.5t33.5 -60.5q-98 -49 -196.5 -98t-198.5 -96l-39 65z" />
<glyph unicode="&#xd4;" horiz-adv-x="1280" d="M1141 727q0 -174 -33 -314.5t-96.5 -238.5t-156.5 -150.5t-216 -52.5q-121 0 -214 52.5t-156.5 150.5t-96.5 238.5t-33 314.5t33 313.5t96.5 237.5t156.5 151.5t214 53.5q123 0 216 -53.5t156.5 -151.5t96.5 -237.5t33 -313.5zM991 727q0 166 -25.5 284.5t-71.5 195.5 t-110.5 113t-144.5 36q-78 0 -143.5 -36t-111.5 -113t-71.5 -195.5t-25.5 -284.5t25.5 -284.5t71.5 -195.5t111.5 -114t143.5 -37q80 0 144.5 37t110.5 114t71.5 195.5t25.5 284.5zM639 1747l-233 -170q-14 16 -29 32.5t-31 32.5q74 63 146.5 126t146.5 124 q74 -61 147.5 -123.5t147.5 -126.5q-16 -16 -30.5 -32.5t-29.5 -32.5z" />
<glyph unicode="&#xd5;" horiz-adv-x="1280" d="M1141 727q0 -174 -33 -314.5t-96.5 -238.5t-156.5 -150.5t-216 -52.5q-121 0 -214 52.5t-156.5 150.5t-96.5 238.5t-33 314.5t33 313.5t96.5 237.5t156.5 151.5t214 53.5q123 0 216 -53.5t156.5 -151.5t96.5 -237.5t33 -313.5zM991 727q0 166 -25.5 284.5t-71.5 195.5 t-110.5 113t-144.5 36q-78 0 -143.5 -36t-111.5 -113t-71.5 -195.5t-25.5 -284.5t25.5 -284.5t71.5 -195.5t111.5 -114t143.5 -37q80 0 144.5 37t110.5 114t71.5 195.5t25.5 284.5zM344 1628q0 86 50 140.5t128 54.5q39 0 69 -15.5t54.5 -34t48 -34t51.5 -15.5q78 0 82 88 h86q0 -86 -51 -140t-127 -54q-41 0 -70.5 15.5t-54 34t-48 33.5t-50.5 15q-37 0 -59.5 -23.5t-24.5 -64.5h-84z" />
<glyph unicode="&#xd6;" horiz-adv-x="1280" d="M1141 727q0 -174 -33 -314.5t-96.5 -238.5t-156.5 -150.5t-216 -52.5q-121 0 -214 52.5t-156.5 150.5t-96.5 238.5t-33 314.5t33 313.5t96.5 237.5t156.5 151.5t214 53.5q123 0 216 -53.5t156.5 -151.5t96.5 -237.5t33 -313.5zM991 727q0 166 -25.5 284.5t-71.5 195.5 t-110.5 113t-144.5 36q-78 0 -143.5 -36t-111.5 -113t-71.5 -195.5t-25.5 -284.5t25.5 -284.5t71.5 -195.5t111.5 -114t143.5 -37q80 0 144.5 37t110.5 114t71.5 195.5t25.5 284.5zM725 1624v203h145v-203h-145zM408 1624v203h145v-203h-145z" />
<glyph unicode="&#xd7;" horiz-adv-x="1357" d="M1016 113l-338 338l-338 -338l-74 73l338 338l-338 338l74 74l338 -338l338 338l74 -74l-338 -338l338 -338z" />
<glyph unicode="&#xd8;" horiz-adv-x="1280" d="M1049 1212q45 -94 68.5 -216t23.5 -269q0 -174 -33 -314.5t-96.5 -238.5t-156.5 -150.5t-216 -52.5q-119 0 -210 50.5t-157 144.5l-65 -90l-68 47l88 123q-88 184 -88 481q0 174 33 313.5t96.5 237.5t156.5 151.5t214 53.5q117 0 208 -49.5t154 -141.5l70 94l70 -49z M991 727q0 106 -11 193.5t-32 156.5l-586 -792q47 -98 118 -144.5t159 -46.5q80 0 144.5 37t110.5 115t71.5 196.5t25.5 284.5zM287 727q0 -207 41 -348l585 792q-47 98 -116.5 142.5t-157.5 44.5q-78 0 -143.5 -37t-111.5 -114t-71.5 -195.5t-25.5 -284.5z" />
<glyph unicode="&#xd9;" horiz-adv-x="1286" d="M643 -29q-221 0 -334 129q-51 55 -72.5 136t-21.5 182v1036h143v-1014q0 -88 12.5 -150.5t45.5 -101.5q41 -49 98 -70.5t129 -21.5t129 21.5t98 70.5q33 39 44.5 101.5t11.5 150.5v1014h145v-1036q0 -100 -21.5 -181t-72.5 -137q-117 -129 -334 -129zM860 1659l-39 -66 q-100 47 -198.5 96.5t-196.5 98.5q16 31 32.5 60.5t33.5 60.5z" />
<glyph unicode="&#xda;" horiz-adv-x="1286" d="M643 -29q-221 0 -334 129q-51 55 -72.5 136t-21.5 182v1036h143v-1014q0 -88 12.5 -150.5t45.5 -101.5q41 -49 98 -70.5t129 -21.5t129 21.5t98 70.5q33 39 44.5 101.5t11.5 150.5v1014h145v-1036q0 -100 -21.5 -181t-72.5 -137q-117 -129 -334 -129zM788 1890 q16 -31 33 -60.5t33 -60.5q-98 -49 -196.5 -98t-198.5 -96l-39 65z" />
<glyph unicode="&#xdb;" horiz-adv-x="1286" d="M643 -29q-221 0 -334 129q-51 55 -72.5 136t-21.5 182v1036h143v-1014q0 -88 12.5 -150.5t45.5 -101.5q41 -49 98 -70.5t129 -21.5t129 21.5t98 70.5q33 39 44.5 101.5t11.5 150.5v1014h145v-1036q0 -100 -21.5 -181t-72.5 -137q-117 -129 -334 -129zM639 1745l-233 -170 q-14 16 -29 32.5t-31 32.5q74 63 146.5 126t146.5 124q74 -61 147.5 -123.5t147.5 -126.5q-16 -16 -30.5 -32.5t-29.5 -32.5z" />
<glyph unicode="&#xdc;" horiz-adv-x="1286" d="M643 -29q-221 0 -334 129q-51 55 -72.5 136t-21.5 182v1036h143v-1014q0 -88 12.5 -150.5t45.5 -101.5q41 -49 98 -70.5t129 -21.5t129 21.5t98 70.5q33 39 44.5 101.5t11.5 150.5v1014h145v-1036q0 -100 -21.5 -181t-72.5 -137q-117 -129 -334 -129zM729 1624v203h145 v-203h-145zM412 1624v203h145v-203h-145z" />
<glyph unicode="&#xdd;" horiz-adv-x="1099" d="M625 643v-643h-144v643l-444 811h174l344 -653l340 653h166zM694 1890q16 -31 32.5 -60.5t33.5 -60.5q-98 -49 -196.5 -98t-198.5 -96l-39 65z" />
<glyph unicode="&#xde;" horiz-adv-x="1214" d="M1122 829q0 -197 -115.5 -307t-340.5 -110h-301v-412h-144v1454h144v-221h309q209 0 330 -115q57 -53 87.5 -127t30.5 -162zM973 821q0 125 -76 206t-235 81h-297v-571h282q326 -1 326 284z" />
<glyph unicode="&#xdf;" horiz-adv-x="1204" d="M203 1102q0 82 26.5 151.5t76.5 120.5t124 80t166 29q100 0 177 -29t129 -76t78 -111.5t26 -133.5q0 -59 -20.5 -112.5t-54.5 -93.5t-78 -66.5t-91 -33.5v-4q53 -8 105.5 -37.5t92 -78t64.5 -115t25 -148.5q0 -233 -113 -352t-305 -119q-41 0 -90 11.5t-78 23.5l33 111 q23 -10 61.5 -18.5t67.5 -8.5q145 0 213.5 85t68.5 251q0 162 -90 251t-262 89h-59v109h59q166 0 237.5 69.5t71.5 175.5q0 104 -66.5 172t-195.5 68q-123 0 -193.5 -72.5t-70.5 -199.5v-1090h-135v1102z" />
<glyph unicode="&#xe0;" horiz-adv-x="1085" d="M981 -16q-113 4 -164 48t-61 144q-53 -86 -135 -143.5t-197 -57.5q-133 0 -214 76t-81 211q0 219 268 301q27 8 64 17.5t77 20.5t75.5 20.5t58.5 17.5q49 16 65.5 32.5t16.5 45.5v22q0 78 -47.5 125t-167.5 47q-121 0 -176.5 -46t-59.5 -126l-135 15q4 129 100.5 201.5 t268.5 72.5q184 0 266 -78t82 -211v-487q0 -43 4 -72.5t16.5 -49t34 -30t55.5 -16.5zM754 569q-14 -12 -30.5 -20t-51.5 -21q-23 -8 -55.5 -17t-68.5 -20.5t-72 -21.5t-62 -20q-78 -29 -112 -76t-34 -113q0 -76 42 -123t128 -47q190 0 316 244v235zM760 1219l-39 -66 q-100 47 -198.5 96t-196.5 99q16 31 32.5 60.5t32.5 59.5z" />
<glyph unicode="&#xe1;" horiz-adv-x="1085" d="M981 -16q-113 4 -164 48t-61 144q-53 -86 -135 -143.5t-197 -57.5q-133 0 -214 76t-81 211q0 219 268 301q27 8 64 17.5t77 20.5t75.5 20.5t58.5 17.5q49 16 65.5 32.5t16.5 45.5v22q0 78 -47.5 125t-167.5 47q-121 0 -176.5 -46t-59.5 -126l-135 15q4 129 100.5 201.5 t268.5 72.5q184 0 266 -78t82 -211v-487q0 -43 4 -72.5t16.5 -49t34 -30t55.5 -16.5zM754 569q-14 -12 -30.5 -20t-51.5 -21q-23 -8 -55.5 -17t-68.5 -20.5t-72 -21.5t-62 -20q-78 -29 -112 -76t-34 -113q0 -76 42 -123t128 -47q190 0 316 244v235zM682 1468 q16 -31 32.5 -60.5t33.5 -59.5q-98 -49 -196.5 -98.5t-199.5 -96.5l-39 66z" />
<glyph unicode="&#xe2;" horiz-adv-x="1085" d="M981 -16q-113 4 -164 48t-61 144q-53 -86 -135 -143.5t-197 -57.5q-133 0 -214 76t-81 211q0 219 268 301q27 8 64 17.5t77 20.5t75.5 20.5t58.5 17.5q49 16 65.5 32.5t16.5 45.5v22q0 78 -47.5 125t-167.5 47q-121 0 -176.5 -46t-59.5 -126l-135 15q4 129 100.5 201.5 t268.5 72.5q184 0 266 -78t82 -211v-487q0 -43 4 -72.5t16.5 -49t34 -30t55.5 -16.5zM754 569q-14 -12 -30.5 -20t-51.5 -21q-23 -8 -55.5 -17t-68.5 -20.5t-72 -21.5t-62 -20q-78 -29 -112 -76t-34 -113q0 -76 42 -123t128 -47q190 0 316 244v235zM539 1315l-234 -170 q-14 16 -28.5 32.5t-30.5 32.5q74 63 146.5 126t146.5 124q74 -61 147.5 -123.5t147.5 -126.5q-16 -16 -31 -32.5t-29 -32.5z" />
<glyph unicode="&#xe3;" horiz-adv-x="1085" d="M981 -16q-113 4 -164 48t-61 144q-53 -86 -135 -143.5t-197 -57.5q-133 0 -214 76t-81 211q0 219 268 301q27 8 64 17.5t77 20.5t75.5 20.5t58.5 17.5q49 16 65.5 32.5t16.5 45.5v22q0 78 -47.5 125t-167.5 47q-121 0 -176.5 -46t-59.5 -126l-135 15q4 129 100.5 201.5 t268.5 72.5q184 0 266 -78t82 -211v-487q0 -43 4 -72.5t16.5 -49t34 -30t55.5 -16.5zM754 569q-14 -12 -30.5 -20t-51.5 -21q-23 -8 -55.5 -17t-68.5 -20.5t-72 -21.5t-62 -20q-78 -29 -112 -76t-34 -113q0 -76 42 -123t128 -47q190 0 316 244v235zM242 1210q0 86 50 140.5 t128 54.5q39 0 68.5 -15.5t54 -34t48 -33.5t52.5 -15q78 0 82 88h86q0 -86 -51 -140.5t-127 -54.5q-41 0 -71 15.5t-54.5 34t-48 33.5t-49.5 15q-37 0 -59.5 -23.5t-24.5 -64.5h-84z" />
<glyph unicode="&#xe4;" horiz-adv-x="1085" d="M981 -16q-113 4 -164 48t-61 144q-53 -86 -135 -143.5t-197 -57.5q-133 0 -214 76t-81 211q0 219 268 301q27 8 64 17.5t77 20.5t75.5 20.5t58.5 17.5q49 16 65.5 32.5t16.5 45.5v22q0 78 -47.5 125t-167.5 47q-121 0 -176.5 -46t-59.5 -126l-135 15q4 129 100.5 201.5 t268.5 72.5q184 0 266 -78t82 -211v-487q0 -43 4 -72.5t16.5 -49t34 -30t55.5 -16.5zM754 569q-14 -12 -30.5 -20t-51.5 -21q-23 -8 -55.5 -17t-68.5 -20.5t-72 -21.5t-62 -20q-78 -29 -112 -76t-34 -113q0 -76 42 -123t128 -47q190 0 316 244v235zM612 1208v203h146v-203 h-146zM295 1208v203h145v-203h-145z" />
<glyph unicode="&#xe5;" horiz-adv-x="1085" d="M981 -16q-113 4 -164 48t-61 144q-53 -86 -135 -143.5t-197 -57.5q-133 0 -214 76t-81 211q0 219 268 301q27 8 64 17.5t77 20.5t75.5 20.5t58.5 17.5q49 16 65.5 32.5t16.5 45.5v22q0 78 -47.5 125t-167.5 47q-121 0 -176.5 -46t-59.5 -126l-135 15q4 129 100.5 201.5 t268.5 72.5q184 0 266 -78t82 -211v-487q0 -43 4 -72.5t16.5 -49t34 -30t55.5 -16.5zM754 569q-14 -12 -30.5 -20t-51.5 -21q-23 -8 -55.5 -17t-68.5 -20.5t-72 -21.5t-62 -20q-78 -29 -112 -76t-34 -113q0 -76 42 -123t128 -47q190 0 316 244v235zM725 1321 q0 -41 -15.5 -77t-43 -63.5t-63.5 -43t-77 -15.5t-75.5 15.5t-62.5 43t-43 63.5t-15 77q0 82 57 139.5t139 57.5q84 0 141.5 -57.5t57.5 -139.5zM406 1321q0 -51 34.5 -86t85.5 -35t86 35t35 86q0 49 -36 85t-85 36q-51 0 -85.5 -36t-34.5 -85z" />
<glyph unicode="&#xe6;" horiz-adv-x="1695" d="M762 467h-211q-55 0 -106.5 -7t-91.5 -28.5t-63.5 -58.5t-23.5 -99q0 -82 52.5 -133t138.5 -51q106 0 182 68.5t123 160.5v148zM1167 911q-53 0 -101 -22.5t-85 -65.5t-60.5 -104.5t-25.5 -136.5h541q-4 154 -69 241.5t-200 87.5zM1176 92q98 0 159.5 58.5t83.5 148.5 l131 -25q-14 -53 -41.5 -106t-73.5 -95t-112 -69t-154 -27q-125 0 -218 66t-140 176q-53 -104 -147.5 -173t-223.5 -69q-66 0 -122 20.5t-98 59.5t-66.5 96.5t-24.5 129.5q0 76 29.5 132t82 93t122 55.5t151.5 18.5h248v155q0 35 -10.5 67t-36 55.5t-68.5 37.5t-106 14 q-119 0 -170.5 -44t-53.5 -126l-135 11q4 129 94.5 202.5t264.5 73.5q72 0 126 -13.5t93 -36t63.5 -51t38.5 -59.5q53 72 130 116t177 44q96 0 172 -33.5t128.5 -95t80 -147.5t27.5 -189q0 -29 -1 -50t-3 -46h-678v-14q0 -84 21.5 -150.5t58.5 -114t88.5 -72t112.5 -24.5z " />
<glyph unicode="&#xe7;" horiz-adv-x="1046" d="M502 -20q-88 8 -158 51t-118 112.5t-73.5 161.5t-25.5 201q0 104 29.5 198.5t85 167t136.5 114.5t183 42q88 0 152.5 -25.5t108.5 -68.5t68.5 -96.5t35.5 -108.5l-131 -22q-16 92 -71.5 148t-166.5 56q-66 0 -119 -29.5t-92 -83t-60.5 -129t-21.5 -167.5 q0 -100 22.5 -177t61.5 -128.5t92.5 -78t112.5 -26.5q119 0 176 64.5t76 165.5q35 -4 67.5 -9.5t67.5 -11.5q-12 -57 -37.5 -113.5t-70 -102.5t-109 -75.5t-154.5 -32.5l-55 -92l2 -2q25 16 74 17q23 0 46 -8.5t42.5 -25t32 -39t12.5 -52.5q0 -72 -49 -114t-150 -42 q-45 0 -88 16.5t-65 38.5l37 56q20 -16 49.5 -26.5t60.5 -10.5q39 0 61.5 18.5t22.5 48.5q0 39 -21.5 54.5t-50.5 15.5q-16 0 -32.5 -5t-32.5 -22q-10 8 -21.5 15.5t-21.5 17.5z" />
<glyph unicode="&#xe8;" horiz-adv-x="1077" d="M930 272q-14 -53 -43 -105t-74 -94t-109.5 -69t-152.5 -27q-98 0 -177 37t-133.5 105.5t-84 166t-29.5 220.5q0 119 29.5 215t85 164.5t133.5 105.5t174 37q94 0 171 -37t129 -100.5t80.5 -149.5t28.5 -184q0 -29 -1 -52.5t-3 -45.5h-686q4 -168 76 -267.5t209 -99.5 q100 0 160.5 58.5t83.5 148.5zM817 573q-2 152 -72.5 245t-199.5 93q-55 0 -105.5 -23.5t-87.5 -67.5t-58.5 -106.5t-23.5 -140.5h547zM764 1219l-39 -66q-100 47 -198.5 96t-196.5 99q16 31 32.5 60.5t32.5 59.5z" />
<glyph unicode="&#xe9;" horiz-adv-x="1077" d="M930 272q-14 -53 -43 -105t-74 -94t-109.5 -69t-152.5 -27q-98 0 -177 37t-133.5 105.5t-84 166t-29.5 220.5q0 119 29.5 215t85 164.5t133.5 105.5t174 37q94 0 171 -37t129 -100.5t80.5 -149.5t28.5 -184q0 -29 -1 -52.5t-3 -45.5h-686q4 -168 76 -267.5t209 -99.5 q100 0 160.5 58.5t83.5 148.5zM817 573q-2 152 -72.5 245t-199.5 93q-55 0 -105.5 -23.5t-87.5 -67.5t-58.5 -106.5t-23.5 -140.5h547zM700 1468q16 -31 33 -60.5t33 -59.5q-98 -49 -196.5 -98.5t-198.5 -96.5l-39 66z" />
<glyph unicode="&#xea;" horiz-adv-x="1077" d="M930 272q-14 -53 -43 -105t-74 -94t-109.5 -69t-152.5 -27q-98 0 -177 37t-133.5 105.5t-84 166t-29.5 220.5q0 119 29.5 215t85 164.5t133.5 105.5t174 37q94 0 171 -37t129 -100.5t80.5 -149.5t28.5 -184q0 -29 -1 -52.5t-3 -45.5h-686q4 -168 76 -267.5t209 -99.5 q100 0 160.5 58.5t83.5 148.5zM817 573q-2 152 -72.5 245t-199.5 93q-55 0 -105.5 -23.5t-87.5 -67.5t-58.5 -106.5t-23.5 -140.5h547zM543 1315l-234 -170q-14 16 -28.5 32.5t-30.5 32.5q74 63 146.5 126t146.5 124q74 -61 147.5 -123.5t147.5 -126.5q-16 -16 -30.5 -32.5 t-29.5 -32.5z" />
<glyph unicode="&#xeb;" horiz-adv-x="1077" d="M930 272q-14 -53 -43 -105t-74 -94t-109.5 -69t-152.5 -27q-98 0 -177 37t-133.5 105.5t-84 166t-29.5 220.5q0 119 29.5 215t85 164.5t133.5 105.5t174 37q94 0 171 -37t129 -100.5t80.5 -149.5t28.5 -184q0 -29 -1 -52.5t-3 -45.5h-686q4 -168 76 -267.5t209 -99.5 q100 0 160.5 58.5t83.5 148.5zM817 573q-2 152 -72.5 245t-199.5 93q-55 0 -105.5 -23.5t-87.5 -67.5t-58.5 -106.5t-23.5 -140.5h547zM633 1208v203h145v-203h-145zM315 1208v203h146v-203h-146z" />
<glyph unicode="&#xec;" horiz-adv-x="509" d="M188 0v1004h131v-1004h-131zM467 1219l-39 -66q-100 47 -198.5 96t-196.5 99q16 31 32.5 60.5t32.5 59.5z" />
<glyph unicode="&#xed;" horiz-adv-x="509" d="M188 0v1004h131v-1004h-131zM403 1468q16 -31 33 -60.5t33 -59.5q-98 -49 -196.5 -98.5t-198.5 -96.5l-39 66z" />
<glyph unicode="&#xee;" horiz-adv-x="509" d="M188 0v1004h131v-1004h-131zM244 1315l-234 -170q-14 16 -28.5 32.5t-30.5 32.5q74 63 146.5 126t146.5 124q74 -61 147.5 -123.5t147.5 -126.5q-16 -16 -30.5 -32.5t-29.5 -32.5z" />
<glyph unicode="&#xef;" horiz-adv-x="509" d="M338 1208v203h145v-203h-145zM20 1208v203h146v-203h-146zM188 0v1004h131v-1004h-131z" />
<glyph unicode="&#xf0;" horiz-adv-x="1167" d="M733 1266q252 -242 252 -682q0 -121 -21.5 -231.5t-70.5 -194.5t-131 -135.5t-205 -51.5q-109 0 -186.5 43t-127.5 113t-74 158t-24 180q0 94 29 175t82 141.5t129 94t170 33.5q55 0 102.5 -15t83 -41t61 -57.5t42.5 -62.5h4q-14 139 -64.5 261t-152.5 218l-297 -151 l-41 82l262 135q-43 33 -98.5 61.5t-110.5 51.5l35 88q72 -27 146.5 -64t131.5 -82l207 105l41 -82zM829 463q0 143 -72.5 233t-195.5 90q-57 0 -107.5 -19t-87 -59t-57 -102.5t-20.5 -150.5q0 -100 23.5 -169t61.5 -112t86 -62.5t95 -19.5q74 0 126 30t85 80t48 117.5 t15 143.5z" />
<glyph unicode="&#xf1;" horiz-adv-x="1138" d="M319 1004q4 -35 5.5 -71t3.5 -81h4q35 72 110.5 124t198.5 52q94 0 161.5 -39t106.5 -104q27 -45 37 -104.5t10 -125.5v-655h-131v633q0 49 -5 94t-21 78q-49 106 -195 106q-72 0 -133 -37.5t-96 -103.5q-18 -37 -29.5 -87t-11.5 -110v-573h-131v690q0 76 -2 154t-8 160 h126zM281 1210q0 86 50 140.5t128 54.5q39 0 68.5 -15.5t54 -34t48 -33.5t52.5 -15q78 0 82 88h86q0 -86 -51 -140.5t-127 -54.5q-41 0 -71 15.5t-54.5 34t-48 33.5t-49.5 15q-37 0 -59.5 -23.5t-24.5 -64.5h-84z" />
<glyph unicode="&#xf2;" horiz-adv-x="1101" d="M973 502q0 -115 -30 -211t-84 -167t-132 -110t-176 -39t-176 39t-133.5 110t-84 167t-28.5 211t28.5 211t84 166.5t133.5 109.5t176 39t176 -39t132 -109.5t84 -166.5t30 -211zM834 502q0 193 -77 302t-206 109t-207 -110.5t-78 -300.5t78 -301t207 -111t206 109.5 t77 302.5zM776 1219l-39 -66q-100 47 -198.5 96t-196.5 99q16 31 32.5 60.5t33.5 59.5z" />
<glyph unicode="&#xf3;" horiz-adv-x="1101" d="M973 502q0 -115 -30 -211t-84 -167t-132 -110t-176 -39t-176 39t-133.5 110t-84 167t-28.5 211t28.5 211t84 166.5t133.5 109.5t176 39t176 -39t132 -109.5t84 -166.5t30 -211zM834 502q0 193 -77 302t-206 109t-207 -110.5t-78 -300.5t78 -301t207 -111t206 109.5 t77 302.5zM688 1468q16 -31 32.5 -60.5t33.5 -59.5q-98 -49 -196.5 -98.5t-199.5 -96.5l-39 66z" />
<glyph unicode="&#xf4;" horiz-adv-x="1101" d="M973 502q0 -115 -30 -211t-84 -167t-132 -110t-176 -39t-176 39t-133.5 110t-84 167t-28.5 211t28.5 211t84 166.5t133.5 109.5t176 39t176 -39t132 -109.5t84 -166.5t30 -211zM834 502q0 193 -77 302t-206 109t-207 -110.5t-78 -300.5t78 -301t207 -111t206 109.5 t77 302.5zM547 1315l-234 -170q-14 16 -28.5 32.5t-30.5 32.5q74 63 146.5 126t146.5 124q74 -61 147.5 -123.5t147.5 -126.5q-16 -16 -30.5 -32.5t-29.5 -32.5z" />
<glyph unicode="&#xf5;" horiz-adv-x="1101" d="M973 502q0 -115 -30 -211t-84 -167t-132 -110t-176 -39t-176 39t-133.5 110t-84 167t-28.5 211t28.5 211t84 166.5t133.5 109.5t176 39t176 -39t132 -109.5t84 -166.5t30 -211zM834 502q0 193 -77 302t-206 109t-207 -110.5t-78 -300.5t78 -301t207 -111t206 109.5 t77 302.5zM262 1210q0 86 50 140.5t128 54.5q39 0 69 -15.5t54.5 -34t48 -33.5t52.5 -15q78 0 81 88h86q0 -86 -51 -140.5t-127 -54.5q-41 0 -70.5 15.5t-54 34t-48 33.5t-50.5 15q-37 0 -59.5 -23.5t-24.5 -64.5h-84z" />
<glyph unicode="&#xf6;" horiz-adv-x="1101" d="M973 502q0 -115 -30 -211t-84 -167t-132 -110t-176 -39t-176 39t-133.5 110t-84 167t-28.5 211t28.5 211t84 166.5t133.5 109.5t176 39t176 -39t132 -109.5t84 -166.5t30 -211zM834 502q0 193 -77 302t-206 109t-207 -110.5t-78 -300.5t78 -301t207 -111t206 109.5 t77 302.5zM633 1208v203h145v-203h-145zM315 1208v203h146v-203h-146z" />
<glyph unicode="&#xf7;" horiz-adv-x="1347" d="M188 471v104h971v-104h-971zM580 780v207h188v-207h-188zM580 61v207h188v-207h-188z" />
<glyph unicode="&#xf8;" horiz-adv-x="1097" d="M870 860q47 -70 74 -161t27 -197q0 -115 -30 -211t-84 -167t-132 -110t-176 -39q-78 0 -143.5 25t-116.5 72l-101 -135l-61 45l109 147q-53 70 -81 164t-28 209t28.5 211t84 166.5t133.5 109.5t176 39q82 0 150.5 -28.5t119.5 -79.5l88 118l64 -45zM264 502 q0 -160 53 -262l426 577q-37 45 -86 70.5t-108 25.5q-129 0 -207 -110.5t-78 -300.5zM831 502q0 141 -45 241l-424 -569q72 -84 187 -84q129 0 205.5 109.5t76.5 302.5z" />
<glyph unicode="&#xf9;" horiz-adv-x="1142" d="M823 0q-4 31 -5 68.5t-3 83.5h-4q-35 -72 -106.5 -123.5t-192.5 -51.5q-152 0 -238 88.5t-86 235.5v703h131v-590q0 -84 9.5 -145.5t34 -100.5t66.5 -57.5t110 -18.5q121 0 195.5 86t74.5 254v572h131v-693q0 -74 3 -154.5t7 -156.5h-127zM788 1219l-38 -66 q-100 47 -198.5 96t-197.5 99q16 31 32.5 60.5t33.5 59.5z" />
<glyph unicode="&#xfa;" horiz-adv-x="1142" d="M823 0q-4 31 -5 68.5t-3 83.5h-4q-35 -72 -106.5 -123.5t-192.5 -51.5q-152 0 -238 88.5t-86 235.5v703h131v-590q0 -84 9.5 -145.5t34 -100.5t66.5 -57.5t110 -18.5q121 0 195.5 86t74.5 254v572h131v-693q0 -74 3 -154.5t7 -156.5h-127zM702 1468q16 -31 33 -60.5 t33 -59.5q-98 -49 -196.5 -98.5t-198.5 -96.5l-39 66z" />
<glyph unicode="&#xfb;" horiz-adv-x="1142" d="M823 0q-4 31 -5 68.5t-3 83.5h-4q-35 -72 -106.5 -123.5t-192.5 -51.5q-152 0 -238 88.5t-86 235.5v703h131v-590q0 -84 9.5 -145.5t34 -100.5t66.5 -57.5t110 -18.5q121 0 195.5 86t74.5 254v572h131v-693q0 -74 3 -154.5t7 -156.5h-127zM557 1315l-233 -170 q-14 16 -28.5 32.5t-31.5 32.5q74 63 146.5 126t146.5 124q74 -61 147.5 -123.5t147.5 -126.5q-16 -16 -30.5 -32.5t-28.5 -32.5z" />
<glyph unicode="&#xfc;" horiz-adv-x="1142" d="M823 0q-4 31 -5 68.5t-3 83.5h-4q-35 -72 -106.5 -123.5t-192.5 -51.5q-152 0 -238 88.5t-86 235.5v703h131v-590q0 -84 9.5 -145.5t34 -100.5t66.5 -57.5t110 -18.5q121 0 195.5 86t74.5 254v572h131v-693q0 -74 3 -154.5t7 -156.5h-127zM647 1208v203h146v-203h-146z M330 1208v203h145v-203h-145z" />
<glyph unicode="&#xfd;" horiz-adv-x="929" d="M453 -201q-41 -113 -100.5 -170t-166.5 -57q-55 0 -102 14.5t-96 42.5q10 25 22.5 49.5t24.5 49.5q39 -20 68.5 -30.5t70.5 -10.5q63 0 99 32.5t59 100.5l61 182l-362 1002h147q35 -98 77 -214t81 -228.5t70.5 -213t48.5 -170.5h4q2 10 11 36t20.5 60.5t24.5 74.5t26 81 l194 574h142zM625 1468q16 -31 32.5 -60.5t32.5 -59.5q-98 -49 -196.5 -98.5t-198.5 -96.5l-39 66z" />
<glyph unicode="&#xfe;" horiz-adv-x="1148" d="M885 508q0 190 -76 296.5t-199 106.5q-68 0 -119 -30.5t-86.5 -85t-54 -129t-18.5 -162.5q0 -90 17.5 -166t53 -130t88 -85t121.5 -31q123 0 198 110.5t75 305.5zM330 162q2 -14 3 -55t1 -82v-435h-131v1864h131v-467q0 -49 -1 -86t-1 -59h4q29 74 105.5 130t187.5 56 q86 0 157.5 -37t124 -106.5t82 -166.5t29.5 -216q0 -113 -27.5 -209t-79 -166t-124 -110t-162.5 -40q-111 0 -185.5 54.5t-109.5 130.5h-4z" />
<glyph unicode="&#xff;" horiz-adv-x="929" d="M453 -201q-41 -113 -100.5 -170t-166.5 -57q-55 0 -102 14.5t-96 42.5q10 25 22.5 49.5t24.5 49.5q39 -20 68.5 -30.5t70.5 -10.5q63 0 99 32.5t59 100.5l61 182l-362 1002h147q35 -98 77 -214t81 -228.5t70.5 -213t48.5 -170.5h4q2 10 11 36t20.5 60.5t24.5 74.5t26 81 l194 574h142zM549 1208v203h145v-203h-145zM231 1208v203h146v-203h-146z" />
<glyph unicode="&#x132;" horiz-adv-x="1642" d="M225 1454h144v-1454h-144v1454zM1438 428q0 -215 -95.5 -336t-308.5 -121q-84 0 -153.5 23.5t-119.5 70t-78 114t-28 157.5v28.5t2 32.5l144 17q-2 -18 -2 -30.5v-21.5q0 -139 60.5 -202.5t184.5 -63.5q248 0 248 318v1040h146v-1026z" />
<glyph unicode="&#x133;" horiz-adv-x="1034" d="M188 0v1004h131v-1004h-131zM184 1221v215h142v-215h-142zM844 -92q0 -86 -8.5 -143.5t-44.5 -104.5q-35 -47 -86.5 -67.5t-116.5 -20.5q-57 0 -106.5 12.5t-88.5 32.5l41 102q35 -16 66.5 -23t70.5 -7q55 0 84 18.5t41.5 49t14.5 71.5t2 88v1088h131v-1096zM707 1221 v215h141v-215h-141z" />
<glyph unicode="&#x152;" horiz-adv-x="1669" d="M825 0q-39 -14 -81 -21.5t-97 -7.5q-121 0 -216 53.5t-159.5 152.5t-98.5 238.5t-34 311.5t34 311.5t98.5 237.5t159.5 152.5t216 54.5q53 0 96 -8.5t82 -20.5h742v-129h-609v-514h433v-129h-433v-553h609v-129h-742zM815 1329q-43 16 -80 22.5t-88 6.5q-74 0 -139.5 -36 t-114.5 -112.5t-77.5 -196.5t-28.5 -286t28.5 -285.5t77.5 -196.5t114.5 -114t139.5 -37q96 0 168 29v1206z" />
<glyph unicode="&#x153;" horiz-adv-x="1775" d="M1255 92q98 0 160 58.5t84 148.5l131 -25q-14 -53 -42.5 -106t-75 -95t-111 -69t-152.5 -27q-127 0 -215 60.5t-139 159.5q-53 -102 -138 -161t-208 -59q-96 0 -174 39t-132.5 110t-84 166t-29.5 210q0 113 28.5 210t83 166.5t132.5 109.5t174 40q121 0 208 -60.5 t140 -164.5q53 104 143 164.5t211 60.5q98 0 174 -37t128.5 -100.5t79 -148.5t26.5 -183q0 -29 -1 -50.5t-3 -49.5h-684q4 -166 78.5 -266.5t207.5 -100.5zM827 502q0 188 -76.5 298.5t-203.5 110.5t-204 -108.5t-77 -300.5q0 -190 78 -301t205 -111q61 0 112.5 28.5t88 83 t57 130.5t20.5 170zM1245 911q-55 0 -105 -23.5t-87 -67.5t-59.5 -106.5t-24.5 -140.5h547q-2 154 -69 246t-202 92z" />
<glyph unicode="&#x178;" horiz-adv-x="1099" d="M625 643v-643h-144v643l-444 811h174l344 -653l340 653h166zM629 1649v202h145v-202h-145zM311 1649v202h146v-202h-146z" />
<glyph unicode="&#x17f;" horiz-adv-x="774" d="M709 1335q-35 14 -66 22.5t-76 8.5q-55 0 -86.5 -15.5t-48.5 -43.5q-16 -29 -19 -76t-3 -94v-1137h-131v891h-216v113h216v143q0 68 9 138.5t56 119.5q72 78 207 78q59 0 107.5 -13.5t89.5 -33.5z" />
<glyph unicode="&#x2c6;" horiz-adv-x="405" d="M203 1315l-234 -170q-14 16 -28.5 32.5t-30.5 32.5q74 63 146.5 126t146.5 124q74 -61 147.5 -123.5t147.5 -126.5q-16 -16 -30.5 -32.5t-29.5 -32.5z" />
<glyph unicode="&#x2dc;" horiz-adv-x="407" d="M-82 1210q0 86 50 140.5t128 54.5q39 0 69 -15.5t54.5 -34t48 -33.5t51.5 -15q78 0 82 88h86q0 -86 -51 -140.5t-127 -54.5q-41 0 -70.5 15.5t-54 34t-48 33.5t-50.5 15q-37 0 -59.5 -23.5t-24.5 -64.5h-84z" />
<glyph unicode="&#x2000;" horiz-adv-x="954" />
<glyph unicode="&#x2001;" horiz-adv-x="1909" />
<glyph unicode="&#x2002;" horiz-adv-x="954" />
<glyph unicode="&#x2003;" horiz-adv-x="1909" />
<glyph unicode="&#x2004;" horiz-adv-x="636" />
<glyph unicode="&#x2005;" horiz-adv-x="477" />
<glyph unicode="&#x2006;" horiz-adv-x="318" />
<glyph unicode="&#x2007;" horiz-adv-x="318" />
<glyph unicode="&#x2008;" horiz-adv-x="238" />
<glyph unicode="&#x2009;" horiz-adv-x="381" />
<glyph unicode="&#x200a;" horiz-adv-x="106" />
<glyph unicode="&#x2010;" horiz-adv-x="925" d="M172 526v119h582v-119h-582z" />
<glyph unicode="&#x2011;" horiz-adv-x="925" d="M172 526v119h582v-119h-582z" />
<glyph unicode="&#x2012;" horiz-adv-x="925" d="M172 526v119h582v-119h-582z" />
<glyph unicode="&#x2013;" horiz-adv-x="1392" d="M184 526v119h1024v-119h-1024z" />
<glyph unicode="&#x2014;" horiz-adv-x="2074" d="M279 526v119h1515v-119h-1515z" />
<glyph unicode="&#x2018;" horiz-adv-x="710" d="M262 1194q0 127 35 193.5t145 80.5v-69q-55 -10 -74.5 -41t-19.5 -96v-52h103v-206h-189v190z" />
<glyph unicode="&#x2019;" horiz-adv-x="710" d="M449 1264q0 -127 -37 -193.5t-144 -81.5v70q63 10 78.5 53t15.5 135h-102v207h189v-190z" />
<glyph unicode="&#x201a;" horiz-adv-x="710" d="M449 16q0 -127 -38 -194.5t-143 -79.5v72q49 6 71.5 36.5t22.5 112.5v37h-102v207h189v-191z" />
<glyph unicode="&#x201c;" horiz-adv-x="1003" d="M565 1194q0 63 8.5 111.5t29 82t55 54t87.5 26.5v-69q-33 -6 -51 -19.5t-27.5 -35t-12.5 -55.5t-3 -79h103v-206h-189v190zM248 1194q0 63 8 111.5t28.5 82t55.5 54t88 26.5v-69q-33 -6 -51.5 -19.5t-27.5 -35t-12 -55.5t-3 -79h102v-206h-188v190z" />
<glyph unicode="&#x201d;" horiz-adv-x="1003" d="M436 1264q0 -127 -35.5 -193.5t-144.5 -81.5v70q55 10 74.5 40.5t19.5 96.5v51h-102v207h188v-190zM754 1264v-27q0 -119 -41 -177.5t-140 -70.5v70q55 10 75 40.5t20 96.5v51h-103v207h189v-190z" />
<glyph unicode="&#x201e;" horiz-adv-x="1003" d="M436 16q0 -127 -37 -194.5t-143 -79.5v72q53 6 73.5 38.5t20.5 110.5v37h-102v207h188v-191zM754 16q0 -127 -37 -194.5t-144 -79.5v72q53 6 74 38.5t21 110.5v37h-103v207h189v-191z" />
<glyph unicode="&#x2022;" horiz-adv-x="1036" d="M854 664q0 -72 -26.5 -135.5t-73.5 -110.5t-110.5 -75t-135.5 -28t-135.5 28t-110.5 75t-74.5 110.5t-27.5 135.5t27.5 135t74.5 110t110.5 74t135.5 27t134.5 -27t109.5 -74t74.5 -110t27.5 -135z" />
<glyph unicode="&#x2026;" horiz-adv-x="2072" d="M260 0v201h186v-201h-186zM944 0v201h186v-201h-186zM1626 0v201h186v-201h-186z" />
<glyph unicode="&#x202f;" horiz-adv-x="381" />
<glyph unicode="&#x2030;" horiz-adv-x="2508" d="M739 1065q0 -197 -80.5 -292t-197.5 -95q-59 0 -109.5 23.5t-89.5 71.5t-60.5 121t-21.5 171t21.5 170t60.5 120t89 71.5t110 23.5q57 0 108.5 -24.5t89 -73.5t59 -121t21.5 -166zM629 1065q0 156 -47 222.5t-121 66.5t-122 -66.5t-48 -222.5t48 -222.5t122 -66.5 t121 66.5t47 222.5zM502 -53l-88 49l874 1485l88 -51zM1616 375q0 -197 -81 -292t-198 -95q-59 0 -109 23.5t-89 71.5t-60.5 120.5t-21.5 171.5q0 98 21.5 169.5t60.5 120t89 72t109 23.5q57 0 108.5 -24.5t89.5 -74t59.5 -121t21.5 -165.5zM1505 375q0 156 -47 222.5 t-121 66.5t-122 -67t-48 -222q0 -156 48.5 -222.5t121.5 -66.5q74 0 121 66.5t47 222.5zM2314 375q0 -197 -81 -292t-197 -95q-59 0 -109.5 23.5t-89.5 71.5t-60.5 120.5t-21.5 171.5q0 98 21.5 169.5t60.5 120t89 72t110 23.5q57 0 108 -24.5t89 -74t59.5 -121t21.5 -165.5 zM2204 375q0 156 -47.5 222.5t-120.5 66.5q-74 0 -122 -67t-48 -222q0 -156 48 -222.5t122 -66.5t121 66.5t47 222.5z" />
<glyph unicode="&#x2039;" horiz-adv-x="620" d="M106 516l300 408l79 -56l-245 -352l245 -354l-79 -53z" />
<glyph unicode="&#x203a;" horiz-adv-x="620" d="M215 109l-80 53l246 354l-246 352l80 56l299 -408z" />
<glyph unicode="&#x205f;" horiz-adv-x="477" />
<glyph unicode="&#x20ac;" d="M383 575q16 -229 97 -354t233 -125q219 0 262 252l141 -29q-12 -70 -40.5 -132t-78 -110t-120 -76t-168.5 -28q-109 0 -192 42t-141.5 121t-93 189.5t-46.5 249.5h-160q6 23 12 47.5t10 49.5h131v47v40.5t2 41.5h-153q6 23 12 47t10 49h138q14 133 51 241.5t96 185.5 t142 118t190 41q94 0 162.5 -30t114.5 -78t73 -107.5t39 -118.5q-35 -8 -71 -13.5t-70 -13.5q-23 117 -84.5 176.5t-167.5 59.5q-141 0 -223 -122t-105 -339h518l-24 -96h-500v-129h477l-25 -97h-448z" />
<glyph unicode="&#x2122;" horiz-adv-x="1626" d="M467 1368v-717h-96v717h-232v86h561v-86h-233zM1366 651v469q0 37 1 92.5t5 102.5h-4q-10 -47 -22.5 -90t-26.5 -84l-162 -490h-65l-164 490q-14 41 -27.5 85t-26.5 91h-4q4 -47 6.5 -102.5t2.5 -88.5v-475h-88v803h122l172 -536l39 -144h4q10 41 17.5 74t19.5 70 l168 536h123v-803h-90z" />
<glyph unicode="&#x2190;" horiz-adv-x="1712" d="M129 727l547 459q18 -20 35.5 -42t36.5 -42l-230 -195q-41 -35 -85 -68.5t-79 -58.5q43 2 117 2h145h967v-114h-967q-72 0 -145.5 1t-116.5 3q88 -66 191.5 -152t202.5 -168l-72 -86z" />
<glyph unicode="&#x2192;" horiz-adv-x="1712" d="M1583 727l-549 -461l-69 86q98 82 202.5 169t188.5 151q-43 -2 -117 -2h-145h-965v114h965q72 0 145.5 -1t116.5 -3q-84 63 -188.5 149.5t-202.5 172.5l69 84z" />
<glyph unicode="&#x25fc;" horiz-adv-x="1003" d="M0 1004h1004v-1004h-1004v1004z" />
<glyph horiz-adv-x="933" d="M86 999q51 39 111.5 88.5t122 103.5t121 110.5t112.5 109.5h123v-1411h-139v1219q-31 -33 -76 -73t-96.5 -83t-103.5 -85t-99 -77z" />
<glyph horiz-adv-x="1087" d="M129 0v125q104 86 216 198.5t247 262.5q66 72 105.5 133t62 116.5t31 105.5t8.5 99q0 121 -61.5 197t-192.5 76q-129 0 -200 -80t-71 -227q-37 4 -72.5 7t-72.5 7q0 86 27.5 161.5t80 132t129 88.5t179.5 32q100 0 175 -32t124 -85t73.5 -124t24.5 -146q0 -78 -15.5 -147 t-48 -134.5t-80.5 -131t-112 -136.5q-92 -102 -191.5 -197.5t-195.5 -181.5q41 0 74 1t63.5 1h60h66.5h373v-121h-807z" />
<glyph horiz-adv-x="1179" d="M1034 420q0 -209 -119.5 -328t-336.5 -119q-111 0 -191 34t-133 91.5t-80 132t-29 154.5l144 21q4 -141 74.5 -225.5t222.5 -84.5q141 0 223 80t82 232q0 98 -33 158.5t-86 95t-121.5 47t-138.5 12.5h-70v117h70q72 0 133.5 13t106.5 44t70.5 79t25.5 118 q0 109 -68.5 165t-185.5 56t-188.5 -59.5t-79.5 -170.5l-144 17q4 72 35 133t84 105t128 70t169 26q92 0 165 -25t123 -70t77.5 -105t27.5 -132q0 -84 -25.5 -140.5t-64.5 -92t-83 -55t-83 -28.5v-4q41 -6 92.5 -25.5t97.5 -61.5t77.5 -109.5t31.5 -165.5z" />
<glyph horiz-adv-x="1130" d="M819 328v-328h-141v328h-561v139l579 944h123v-962h215v-121h-215zM678 449v704l-426 -704h426z" />
<glyph horiz-adv-x="1200" d="M1061 481q0 -119 -33 -213t-93.5 -159.5t-145 -100.5t-191.5 -35q-94 0 -170 28t-133 78t-94 118.5t-51 150.5l143 27q20 -135 100 -207t213 -72q68 0 124 24.5t97 72t64.5 116t23.5 158.5q0 172 -80.5 264t-226.5 92q-102 0 -180 -49t-123 -137h-112l38 774h736v-123 h-615l-28 -469q53 59 133 93t176 34q94 0 173 -32.5t136 -93t88 -147t31 -192.5z" />
<glyph horiz-adv-x="1187" d="M1065 459q0 -106 -30.5 -195.5t-88 -153t-141.5 -99.5t-191 -36q-127 0 -224 56.5t-157 173.5q-47 88 -65 198.5t-18 249.5q0 373 149 588q66 94 154 143.5t196 49.5q96 0 165 -30t113 -79t67.5 -111.5t29.5 -128.5l-143 -16q-12 123 -67.5 183.5t-172.5 60.5 q-70 0 -132.5 -39t-109.5 -117q-53 -86 -78.5 -193.5t-27.5 -261.5q49 90 137 146.5t211 56.5q98 0 177 -32.5t134.5 -92t84 -141.5t28.5 -180zM920 444q0 156 -76 248t-223 92q-61 0 -116.5 -23.5t-97.5 -67.5t-68 -105.5t-26 -136.5q0 -160 84 -256.5t224 -96.5 q63 0 117.5 21.5t94 64.5t63.5 107.5t24 152.5z" />
<glyph horiz-adv-x="987" d="M911 1298q-219 -281 -334.5 -602t-134.5 -696h-145q12 197 47 370t93.5 329.5t140 302t190.5 286.5h-705v123h848v-113z" />
<glyph horiz-adv-x="1212" d="M1061 395q0 -92 -33 -168.5t-93.5 -132t-144 -87.5t-184.5 -32q-102 0 -186 32t-144.5 87.5t-93 132t-32.5 168.5q0 82 26.5 146.5t68.5 111.5t91 76t96 37v4q-45 12 -86 39t-71.5 65.5t-49 91t-18.5 117.5q0 74 29.5 138.5t83 111.5t127 74t159.5 27t159 -27t127 -74 t84 -111.5t30 -138.5q0 -66 -18.5 -118t-49.5 -91.5t-72 -66.5t-86 -39v-4q45 -8 95.5 -37t91.5 -75t67.5 -110.5t26.5 -146.5zM918 403q0 61 -22 114.5t-61.5 93.5t-97 63.5t-131.5 23.5t-131 -23.5t-97 -63.5t-61.5 -93t-21.5 -115q0 -139 87 -222t224 -83q68 0 125 21.5 t98 61.5t65 96t24 126zM862 1075q0 104 -68.5 171t-187.5 67t-188.5 -66.5t-69.5 -171.5q0 -111 66.5 -183.5t191.5 -72.5t190.5 72.5t65.5 183.5z" />
<glyph horiz-adv-x="1185" d="M123 987q0 94 31.5 176t90 142.5t141.5 94.5t187 34q111 0 198 -38t149 -118q63 -86 88.5 -203t25.5 -278q0 -225 -29.5 -368.5t-84.5 -244.5q-53 -94 -140.5 -151.5t-222.5 -57.5q-182 0 -282.5 98.5t-104.5 256.5l143 22q4 -129 66.5 -191.5t179.5 -62.5q96 0 153.5 42 t98.5 120q39 76 59.5 185.5t20.5 256.5q-45 -80 -127 -131t-213 -51q-98 0 -177 35t-134.5 96.5t-86 147.5t-30.5 188zM268 983q0 -156 79 -248t222 -92q141 0 223 90t82 252q0 70 -20 130.5t-59 104.5t-95.5 68.5t-128.5 24.5q-74 0 -130 -25.5t-94 -69.5t-58.5 -104.5 t-20.5 -130.5z" />
<glyph horiz-adv-x="1236" d="M1092 707q0 -166 -30 -301.5t-89.5 -230.5t-148.5 -147.5t-206 -52.5q-119 0 -206.5 52.5t-147 147.5t-89.5 230.5t-30 301.5q0 168 30 303t89.5 229t147.5 144.5t206 50.5q117 0 206 -51.5t148.5 -146.5t89.5 -229t30 -300zM946 707q0 299 -84 452.5t-244 153.5 t-244.5 -153.5t-84.5 -452.5t85 -454t244 -155q160 0 244 155t84 454z" />
<glyph horiz-adv-x="700" d="M326 711q0 -123 17 -237t55 -225.5t98.5 -223t144.5 -232.5l-88 -61q-178 231 -271.5 469.5t-93.5 509.5q0 270 93.5 508.5t271.5 470.5l88 -62q-84 -121 -144.5 -233.5t-98.5 -223t-55 -224t-17 -236.5z" />
<glyph horiz-adv-x="700" d="M373 711q0 123 -17.5 236.5t-55.5 224t-97.5 223t-143.5 233.5l86 62q180 -233 273.5 -470t93.5 -509t-93 -509t-274 -470l-86 61q84 121 143.5 232.5t97.5 223t55.5 225.5t17.5 237z" />
<glyph horiz-adv-x="925" d="M172 676v119h582v-119h-582z" />
<glyph horiz-adv-x="706" d="M274 -236v1893h390v-109h-261v-1677h261v-107h-390z" />
<glyph horiz-adv-x="706" d="M43 -236v107h260v1677h-260v109h389v-1893h-389z" />
<glyph horiz-adv-x="704" d="M104 768q109 2 134 72q10 25 12 59.5t2 87.5v334q0 141 41 217q29 53 77 86t132 33h84v-113h-58q-98 0 -125 -63q-12 -27 -15 -64t-3 -92v-342q0 -106 -18 -158q-16 -45 -46 -70.5t-71 -41.5v-4q41 -16 70.5 -42t46.5 -69q18 -53 18 -160v-342q0 -55 3 -92t15 -63 q27 -63 125 -64h58v-113h-84q-84 0 -133.5 33t-77.5 86q-23 41 -31 93.5t-8 121.5v338q0 53 -2 87t-12 61q-23 66 -134 71v113z" />
<glyph horiz-adv-x="704" d="M600 655q-113 -6 -135 -71q-10 -27 -11 -61t-1 -87v-338q0 -70 -7.5 -121t-29.5 -92q-29 -53 -80 -87t-135 -34h-82v113h57q96 0 123 64q20 49 20 155v342q0 53 4.5 93t14.5 67q16 43 45 68.5t70 42.5v4q-41 16 -70 41.5t-45 70.5q-18 51 -19 158v342q0 106 -20 156 q-27 63 -123 63h-57v113h82q84 0 135 -34t80 -87q23 -41 30 -92t7 -123v-334q0 -53 1 -88t11 -59q25 -70 135 -72v-113z" />
<glyph horiz-adv-x="944" d="M106 664l300 407l79 -53l-245 -354l245 -353l-79 -55zM430 664l299 407q18 -14 38.5 -26.5t39.5 -26.5l-246 -354l246 -353l-78 -55z" />
<glyph horiz-adv-x="925" d="M172 676v119h582v-119h-582z" />
<glyph horiz-adv-x="944" d="M537 256l-78 55l246 353l-246 354q18 14 38.5 26.5t39.5 26.5l299 -407zM215 256l-80 55l246 353l-246 354l80 53l299 -407z" />
<glyph horiz-adv-x="1392" d="M184 676v119h1024v-119h-1024z" />
<glyph horiz-adv-x="2074" d="M279 676v119h1515v-119h-1515z" />
<glyph horiz-adv-x="620" d="M106 664l300 407l79 -53l-245 -354l245 -353l-79 -55z" />
<glyph horiz-adv-x="620" d="M215 256l-80 55l246 353l-246 354l80 53l299 -407z" />
<glyph horiz-adv-x="1855" d="M1042 846q14 35 40 67.5t63 58t84 41t104 15.5q86 0 159 -36t125 -104.5t82 -166.5t30 -221q0 -117 -28 -213.5t-80 -165t-126 -106.5t-166 -38q-106 0 -181 54.5t-106 130.5h-4q0 -39 -2 -81t-6 -81h-129q4 76 7 158t3 157v1020q-53 4 -92 9.5t-75.5 10.5t-74.5 8t-85 3 q-59 0 -94 -16.5t-52.5 -46t-22.5 -72.5t-5 -96v-131h297v-113h-297v-891h-131v891h-216v113h216v143q0 63 11 123.5t43 107.5t89 76t149 29q63 0 110.5 -6.5t96.5 -14.5t110.5 -16t153.5 -12v-445q0 -41 -1 -83t-3 -60h4zM1591 506q0 90 -18.5 164.5t-54 128t-87 83 t-114.5 29.5q-68 0 -119 -31.5t-87 -87t-53.5 -130t-17.5 -160.5t17.5 -161t52.5 -130t87 -87t122 -32q123 0 197.5 101.5t74.5 312.5z" />
<glyph horiz-adv-x="1865" d="M748 1436q-10 -27 -19.5 -51.5t-19.5 -49.5q-35 14 -66 22.5t-76 8.5q-59 0 -91 -17.5t-47 -48t-17 -72.5t-2 -91v-133h501v143q0 63 10.5 123.5t40 107.5t82 76t136.5 29q66 0 111.5 -15.5t86.5 -37.5l-41 -95q-35 16 -67.5 24.5t-75.5 8.5q-53 0 -84 -18.5t-46 -49 t-18.5 -72.5t-3.5 -91v-133h633v-1096q0 -86 -8 -143.5t-45 -104.5q-35 -47 -86 -67.5t-117 -20.5q-57 0 -107 12.5t-89 32.5l43 102q35 -16 66.5 -23t70.5 -7q55 0 84 18.5t41 49t14 71.5t2 88v975h-502v-891h-131v891h-501v-891h-131v891h-216v113h216v143q0 61 9 121.5 t37.5 107.5t82 77t143.5 30q59 0 107.5 -13.5t89.5 -33.5zM1538 1221v215h141v-215h-141z" />
<glyph horiz-adv-x="2050" d="M748 1436q-10 -27 -19.5 -51.5t-19.5 -49.5q-35 14 -66 22.5t-76 8.5q-59 0 -91 -17.5t-47 -48t-17 -72.5t-2 -91v-133h501v143q0 61 9.5 121.5t39 108.5t82 77t138.5 29q63 0 110 -15.5t88 -37.5l-41 -95q-35 16 -67.5 24.5t-75.5 8.5q-53 0 -84 -18.5t-46 -49 t-18.5 -72.5t-3.5 -91v-133h502v305l131 57v-362h279v-113h-279v-569q0 -59 5.5 -102.5t21.5 -71t46 -42t81 -14.5q41 0 74.5 7t68.5 22q10 -25 19.5 -50.5t19.5 -50.5q-43 -20 -94 -31.5t-105 -11.5q-88 0 -140 30t-80.5 77t-38 106.5t-9.5 118.5v582h-502v-891h-131v891 h-501v-891h-131v891h-216v113h216v143q0 61 9 121.5t37.5 107.5t82 77t143.5 30q55 0 105.5 -13.5t91.5 -33.5z" />
<glyph horiz-adv-x="1841" d="M1530 0v627q0 63 -10.5 115.5t-36 90t-68.5 58t-110 20.5q-55 0 -102.5 -22.5t-83.5 -65.5t-56.5 -105.5t-20.5 -142.5v-575h-131v1335q-53 4 -92 9.5t-75.5 10.5t-74.5 8t-85 3q-59 0 -94 -16.5t-52.5 -46t-22.5 -72.5t-5 -96v-131h297v-113h-297v-891h-131v891h-216 v113h216v143q0 63 11 123.5t43 107.5t89 76t149 29q63 0 110.5 -6.5t96.5 -14.5t110.5 -16t153.5 -12v-422q0 -41 -1 -78t-3 -76h4q33 72 108 121t179 49q92 0 155.5 -29.5t102.5 -80t56.5 -120t17.5 -149.5v-649h-131z" />
<glyph horiz-adv-x="1232" d="M1042 -92q2 -86 -7 -143.5t-46 -104.5q-35 -47 -86 -67.5t-117 -20.5q-57 0 -107 12.5t-89 32.5l43 102q35 -16 66.5 -23t70.5 -7q55 0 84 18.5t41 49t14 71.5t2 88v975h-501v-891h-131v891h-216v113h216v143q0 63 10 123.5t39.5 107.5t82 76t136.5 29q66 0 112 -15.5 t86 -37.5l-40 -95q-35 16 -68 24.5t-76 8.5q-53 0 -84 -18.5t-46 -49t-18 -72.5t-3 -91v-133h632v-1096zM905 1221v215h142v-215h-142z" />
<glyph horiz-adv-x="1753" d="M1548 0q-82 125 -163.5 249t-163.5 251l-179 -187v-313h-131v1335q-53 4 -92 9.5t-75.5 10.5t-74.5 8t-85 3q-59 0 -94 -16.5t-52.5 -46t-22.5 -72.5t-5 -96v-131h297v-113h-297v-891h-131v891h-216v113h216v143q0 70 13 131t46 107.5t90 72t143 25.5q63 0 110.5 -6.5 t96.5 -14.5t110.5 -16t153.5 -12v-942l474 512h178l-383 -410l399 -594h-162z" />
<glyph horiz-adv-x="1417" d="M1042 322q0 -49 2.5 -84t12.5 -58q16 -41 47 -64.5t92 -23.5q41 0 75 7t68 22l39 -101q-43 -20 -94 -32.5t-104 -12.5q-68 0 -117 20.5t-84 57.5q-47 49 -57.5 119t-10.5 137v582h-501v-891h-131v891h-216v113h216v143q0 68 9 138.5t56 119.5q72 78 203 78 q63 0 110.5 -15.5t87.5 -37.5l-40 -95q-35 16 -68 24.5t-76 8.5q-51 0 -81.5 -17.5t-47.5 -45.5q-16 -29 -19 -75t-3 -93v-133h501v305l131 57v-362h279v-113h-279v-569z" />
<glyph horiz-adv-x="1855" d="M758 1427q-10 -23 -20.5 -47t-20.5 -49q-35 16 -69 25.5t-81 9.5q-59 0 -91 -17.5t-46 -48t-17 -72.5t-3 -91v-133h622v-637q0 -143 49 -209t170 -66t196 86t75 254v572h131v-693q0 -74 3 -154.5t7 -156.5h-127q-4 31 -5 68.5t-3 83.5h-4q-35 -72 -106.5 -123.5 t-192.5 -51.5q-166 0 -245 99.5t-79 265.5v549h-491v-891h-131v891h-216v113h216v143q0 61 8 120.5t36.5 107.5t83 77t146.5 29q63 0 112.5 -15.5t92.5 -38.5z" />
<glyph horiz-adv-x="1658" d="M1253 0h-127l-313 891h-403v-891h-131v891h-216v113h216v143q0 68 9 138.5t56 119.5q72 78 207 78q59 0 107.5 -13.5t89.5 -33.5l-39 -101q-35 14 -66 22.5t-76 8.5q-55 0 -86.5 -15.5t-48.5 -43.5q-16 -29 -19 -76t-3 -94v-133h505l213 -629q20 -57 34 -106.5t28 -102.5 h4q14 53 27.5 102t33.5 107l213 629h138z" />
<glyph horiz-adv-x="2025" d="M1690 0h-131l-148 608q-12 53 -23.5 113.5t-17.5 120.5h-4q-8 -59 -20.5 -119.5t-24.5 -114.5l-143 -608h-138l-219 891h-411v-891h-131v891h-216v113h216v143q0 68 9 138.5t56 119.5q72 78 207 78q59 0 107.5 -13.5t89.5 -33.5l-39 -101q-35 14 -66 22.5t-76 8.5 q-55 0 -86.5 -15.5t-48.5 -43.5q-16 -29 -19 -76t-3 -94v-133h518l141 -621q16 -66 24.5 -115t18.5 -106h4q8 57 16.5 106t24.5 115l139 621h144l141 -621q14 -61 22.5 -112.5t18.5 -110.5h4q10 59 18.5 110.5t24.5 112.5l139 621h131z" />
<glyph horiz-adv-x="1662" d="M1184 -201q-39 -111 -99.5 -169t-164.5 -58q-55 0 -103.5 14.5t-97.5 42.5q12 25 24.5 49.5t22.5 49.5q41 -20 70.5 -30.5t70.5 -10.5q63 0 98 33.5t58 99.5l63 182l-323 889h-393v-891h-131v891h-216v113h216v143q0 63 9 123.5t38.5 107.5t83 76t141.5 29 q59 0 107.5 -13.5t89.5 -33.5q-10 -27 -19.5 -51.5t-19.5 -49.5q-35 14 -66 22.5t-76 8.5q-59 0 -91 -17.5t-47 -48t-17 -72.5t-2 -91v-133h501q53 -158 108.5 -315t108.5 -314q23 -66 38.5 -117t21.5 -80h4q6 27 22.5 79t38.5 118l215 629h142z" />
<glyph horiz-adv-x="1460" d="M1395 1335q-35 14 -66 22.5t-76 8.5q-55 0 -86.5 -15.5t-48.5 -43.5q-16 -29 -19 -76t-3 -94v-133h284v-113h-284v-891h-131v891h-562v-569q0 -49 4.5 -84t12.5 -58q14 -41 45 -64.5t92 -23.5q41 0 75 7t68 22l39 -101q-41 -20 -93 -32.5t-105 -12.5q-66 0 -115 20.5 t-86 57.5q-47 49 -57.5 119t-10.5 137v582h-209v113h209v305l131 57v-362h562v143q0 68 9 138.5t56 119.5q72 78 207 78q59 0 107.5 -13.5t89.5 -33.5z" />
<glyph horiz-adv-x="1282" d="M961 0v891h-558v-569q0 -49 4.5 -84t12.5 -58q14 -41 45 -64.5t92 -23.5q41 0 75 7t68 22l39 -101q-41 -20 -93 -32.5t-105 -12.5q-66 0 -115 20.5t-86 57.5q-47 49 -57.5 119t-10.5 137v582h-209v113h209v305l131 57v-362h689v-1004h-131zM956 1221v215h142v-215h-142z " />
<glyph horiz-adv-x="1302" d="M1110 -92q0 -84 -7 -142.5t-44 -105.5t-89 -67.5t-116 -20.5q-55 0 -105.5 12.5t-89.5 32.5l41 102q35 -16 68 -23t72 -7q55 0 83.5 18.5t41 49t13.5 71.5t1 88v975h-576v-569q0 -121 29 -175.5t125 -54.5q41 0 75 7t68 22q10 -25 19.5 -50.5t19.5 -50.5 q-41 -20 -93 -31.5t-105 -11.5q-86 0 -138.5 29t-81 76t-39 106.5t-10.5 120.5v582h-209v113h209v305q35 14 67 27.5t64 29.5v-362h707v-1096zM975 1221v215h141v-215h-141z" />
<glyph horiz-adv-x="1454" d="M1415 20q-41 -20 -93 -32.5t-105 -12.5q-66 0 -115 20.5t-86 57.5q-47 49 -57.5 119t-10.5 137v582h-545v-569q0 -49 4.5 -84t12.5 -58q14 -41 45 -64.5t92 -23.5q41 0 75 7t68 22l39 -101q-41 -20 -93 -32.5t-105 -12.5q-66 0 -115 20.5t-86 57.5q-47 49 -57.5 119 t-10.5 137v582h-209v113h209v305l131 57v-362h545v305l131 57v-362h279v-113h-279v-569q0 -49 4 -84t13 -58q14 -41 44.5 -64.5t92.5 -23.5q41 0 74.5 7t68.5 22z" />
<glyph horiz-adv-x="2125" d="M1415 20q-41 -20 -93 -32.5t-105 -12.5q-66 0 -115 20.5t-86 57.5q-47 49 -57.5 119t-10.5 137v582h-545v-569q0 -49 4.5 -84t12.5 -58q14 -41 45 -64.5t92 -23.5q41 0 75 7t68 22l39 -101q-41 -20 -93 -32.5t-105 -12.5q-66 0 -115 20.5t-86 57.5q-47 49 -57.5 119 t-10.5 137v582h-209v113h209v305l131 57v-362h545v305l131 57v-362h551v143q0 68 9.5 138.5t56.5 119.5q72 78 207 78q59 0 107 -13.5t89 -33.5l-39 -101q-35 14 -65.5 22.5t-75.5 8.5q-55 0 -87 -15.5t-48 -43.5q-16 -29 -19.5 -76t-3.5 -94v-133h285v-113h-285v-891h-131 v891h-551v-569q0 -49 4 -84t13 -58q14 -41 44.5 -64.5t92.5 -23.5q41 0 74.5 7t68.5 22z" />
<glyph horiz-adv-x="1978" d="M1425 20q-41 -20 -93 -32.5t-105 -12.5q-66 0 -115 20.5t-86 57.5q-47 49 -57.5 119t-10.5 137v582h-555v-569q0 -49 4.5 -84t12.5 -58q14 -41 45 -64.5t92 -23.5q41 0 75 7t68 22l39 -101q-41 -20 -93 -32.5t-105 -12.5q-66 0 -115 20.5t-86 57.5q-47 49 -57.5 119 t-10.5 137v582h-209v113h209v305l131 57v-362h555v305l132 57v-362h698v-1098q0 -84 -8 -142.5t-45 -105.5q-72 -86 -203 -86q-117 0 -197 45l43 100q35 -16 67 -23t71 -7q66 0 92 24.5t37 59.5q8 23 10 65.5t2 79.5v975h-567v-569q0 -49 4 -84t12 -58q14 -41 45 -64.5 t92 -23.5q41 0 75 7t68 22zM1651 1221v215h141v-215h-141z" />
<glyph horiz-adv-x="1890" d="M1571 0q-2 31 -4 68.5t-2 83.5h-4q-35 -72 -108 -123.5t-193 -51.5q-176 0 -250 106.5t-74 301.5v506h-533v-569q0 -121 29 -175.5t125 -54.5q41 0 75 7t68 22q10 -25 19.5 -50.5t19.5 -50.5q-41 -20 -93 -31.5t-105 -11.5q-86 0 -138.5 29t-81 76t-39 106.5t-10.5 120.5 v582h-209v113h209v305q35 14 67 27.5t64 29.5v-362h664v-590q0 -86 9 -146.5t34 -99.5t68 -57.5t108 -18.5q121 0 197 86t76 254v572h131v-693q0 -74 2 -154.5t6 -156.5h-127z" />
<glyph horiz-adv-x="1652" d="M1247 0h-127l-313 891h-404v-569q0 -49 4.5 -84t12.5 -58q14 -41 45 -64.5t92 -23.5q41 0 75 7t68 22l39 -101q-41 -20 -93 -32.5t-105 -12.5q-66 0 -115 20.5t-86 57.5q-47 49 -57.5 119t-10.5 137v582h-209v113h209v305l131 57v-362h506l213 -629q20 -57 33.5 -106.5 t28.5 -102.5h4q14 53 27.5 102t33.5 107l213 629h137z" />
<glyph horiz-adv-x="2056" d="M1720 0h-131l-147 608q-12 53 -23.5 113.5t-17.5 120.5h-4q-8 -59 -20.5 -119.5t-24.5 -114.5l-144 -608h-137l-219 891h-449v-569q0 -49 4.5 -84t12.5 -58q14 -41 45 -64.5t92 -23.5q41 0 75 7t68 22l39 -101q-41 -20 -93 -32.5t-105 -12.5q-66 0 -115 20.5t-86 57.5 q-47 49 -57.5 119t-10.5 137v582h-209v113h209v305l131 57v-362h555l142 -621q16 -66 24.5 -115t18.5 -106h4q8 57 16 106t25 115l139 621h143l142 -621q14 -61 22 -112.5t19 -110.5h4q10 59 18 110.5t25 112.5l139 621h131z" />
<glyph horiz-adv-x="1677" d="M1198 -201q-39 -111 -99.5 -169t-164.5 -58q-53 0 -104.5 15.5t-96.5 41.5q12 25 24.5 49.5t22.5 49.5q41 -20 71 -30.5t71 -10.5q63 0 98 33.5t57 99.5l64 182l-324 889h-414v-569q0 -115 28 -172.5t126 -57.5q41 0 75 7t68 22q10 -25 19.5 -50.5t19.5 -50.5 q-41 -20 -93 -31.5t-105 -11.5q-86 0 -138.5 29t-81 76t-39 106.5t-10.5 120.5v582h-209v113h209v305q35 14 67 27.5t64 29.5v-362h523q53 -158 108.5 -315t108.5 -314q23 -66 38 -117t21 -80h4q4 12 15.5 54t27.5 90l35 102q49 145 98.5 289.5t100.5 290.5h141z" />
<glyph horiz-adv-x="2263" d="M129 727q178 178 353 355.5t356 355.5q18 -18 36.5 -39t38.5 -39l-376 -385q-47 -47 -102.5 -101.5t-102.5 -93.5q20 0 54 1t73 1h80h77h1518v-112h-1518h-77.5t-79.5 1t-73 2t-54 1q47 -39 103.5 -94.5t103.5 -102.5l374 -383l-75 -80z" />
<glyph horiz-adv-x="2260" d="M1421 1438q180 -180 355.5 -356.5t355.5 -354.5l-709 -713q-20 18 -38.5 39t-36.5 39l376 385q45 47 101.5 101.5t103.5 93.5q-23 0 -56.5 -1t-72.5 -1h-80h-78h-1515v112h1515h78t80 -1t73 -2t56 -1q-47 39 -104.5 94.5t-102.5 102.5q-94 98 -188 192.5t-188 190.5z" />
<glyph d="M1059 707q0 -166 -30 -301.5t-89 -230.5t-147 -147.5t-207 -52.5q-117 0 -206 52.5t-148.5 147.5t-89 230.5t-29.5 301.5q0 168 29.5 303t89 229t148.5 144.5t206 50.5q119 0 207 -51.5t147 -146.5t89 -229t30 -300zM258 707q0 -233 49 -377l506 856q-84 127 -227 127 q-160 0 -244 -153.5t-84 -452.5zM915 707q0 113 -13 203.5t-38 162.5l-504 -852q82 -123 226 -123q160 0 244.5 155t84.5 454z" />
<glyph horiz-adv-x="1681" d="M1415 70q-37 -45 -93 -83t-126 -67t-148.5 -45t-160.5 -16q-141 0 -272.5 47t-231.5 141t-160.5 236.5t-60.5 330.5q0 211 57 380t161.5 289t248 184.5t315.5 64.5q143 0 255 -54.5t187.5 -146.5t115.5 -216t40 -265q0 -133 -29.5 -242.5t-82 -188.5t-126 -122 t-159.5 -43q-72 0 -118 39t-58 110h-4q-12 -27 -33 -53t-47.5 -47.5t-61.5 -35t-78 -13.5q-63 0 -109 27.5t-77 74.5t-45 109.5t-14 134.5q0 86 22.5 180t68.5 171t114.5 127t160.5 50q59 0 106.5 -34.5t63.5 -94.5h6q4 10 10.5 29t12.5 35q8 20 16 39h127 q-18 -53 -36.5 -130t-30.5 -157l-43 -260q-4 -29 -7.5 -57.5t-3.5 -51.5q0 -45 26 -66.5t54 -21.5q57 0 105.5 36t83.5 99.5t55.5 152.5t20.5 198q0 123 -32 230.5t-94.5 187t-154.5 125t-211 45.5q-150 0 -272.5 -58.5t-209.5 -165t-135.5 -258t-48.5 -336.5 q0 -160 49.5 -281.5t133.5 -205.5t197.5 -127t240.5 -43q68 0 135.5 14.5t130 39t113.5 57t84 71.5zM995 834q0 68 -26.5 121t-96.5 53q-63 0 -108 -42t-72.5 -103.5t-41 -130t-13.5 -120.5q0 -117 31.5 -178t103.5 -61q66 0 109 54t68.5 128t35.5 152t10 127z" />
<glyph horiz-adv-x="514" d="M197 -381v2204h118v-2204h-118z" />
<glyph horiz-adv-x="1347" d="M727 674v-428h-106v428h-433v104h433v426h106v-426h432v-104h-432z" />
<glyph horiz-adv-x="1347" d="M188 0v104h971v-104h-971zM727 674v-428h-106v428h-433v104h433v426h106v-426h432v-104h-432z" />
<glyph horiz-adv-x="1347" d="M1016 250l-338 338l-338 -338l-74 74l338 338l-338 337l74 74l338 -338l338 338l74 -74l-338 -337l338 -338z" />
<glyph horiz-adv-x="1347" d="M188 674v104h971v-104h-971zM580 983v207h188v-207h-188zM580 264v207h188v-207h-188z" />
<glyph horiz-adv-x="1347" d="M188 770v104h971v-104h-971zM188 444v105h971v-105h-971z" />
<glyph horiz-adv-x="1347" d="M1163 240q-12 -23 -24.5 -46.5t-22.5 -48.5l-938 467v99q236 117 469.5 232.5t468.5 232.5l47 -95l-661 -319q-59 -29 -121 -55.5t-107 -42.5v-5q31 -10 79 -31.5t128 -60.5z" />
<glyph horiz-adv-x="1347" d="M184 240l602 290q72 35 152 73t133 56v5q-43 16 -104.5 42.5t-120.5 55.5l-662 319q10 25 22.5 48.5t24.5 46.5l936 -465v-99l-936 -467z" />
<glyph horiz-adv-x="1347" d="M1057 434v334h-881v115h995v-449h-114z" />
<glyph horiz-adv-x="614" d="M203 1454h131v-1141q0 -47 3 -87t15.5 -70.5t38 -48t70.5 -17.5q35 0 61.5 7t57.5 30l59 -92q-41 -29 -82 -45.5t-111 -16.5q-57 0 -107 21.5t-85 68.5q-37 47 -44 104.5t-7 143.5v1143z" />
<glyph horiz-adv-x="1323" d="M911 1335q-53 4 -92 9.5t-75.5 10.5t-74.5 8t-85 3q-59 0 -94 -16.5t-52.5 -46t-22.5 -72.5t-5 -96v-131h297v-113h-297v-891h-131v891h-216v113h216v143q0 70 13 131t46 107.5t90 72t143 25.5q66 0 114 -6.5t97 -14.5t109.5 -16t150.5 -12v-1121q0 -47 3.5 -87 t15.5 -70.5t37.5 -48t70.5 -17.5q35 0 61.5 7t57.5 30l60 -92q-41 -29 -82 -45.5t-111 -16.5q-57 0 -107.5 21.5t-84.5 68.5q-37 47 -44.5 104.5t-7.5 143.5v1024z" />
<glyph horiz-adv-x="1957" d="M1542 1335q-51 4 -91 9.5t-76 10.5t-73.5 8t-87.5 3q-57 0 -92 -16.5t-53 -46t-23.5 -72.5t-5.5 -96v-131h287v-113h-287v-891h-131v891h-499v-891h-131v891h-216v113h216v143q0 68 11 128t40.5 106t82 74t134.5 28q59 0 103 -12.5t85 -32.5q-10 -27 -19 -50.5t-20 -50.5 q-35 16 -64.5 23.5t-70.5 7.5q-55 0 -85 -17.5t-45 -49t-18 -73.5t-3 -91v-133h499v143q0 68 12.5 128t46 106t90 74t146.5 28q63 0 111.5 -6.5t97.5 -14.5t109.5 -16t150.5 -12v-1121q0 -47 3 -87t15.5 -70.5t38 -48t70.5 -17.5q35 0 61.5 7t57.5 30l59 -92 q-41 -29 -82 -45.5t-110 -16.5q-57 0 -107.5 21.5t-85.5 68.5q-37 47 -44 104.5t-7 143.5v1024z" />
<glyph horiz-adv-x="509" d="M188 0v1004h131v-1004h-131zM184 1221v215h142v-215h-142z" />
</font>
</defs>
</svg>
