<?xml version="1.0" encoding="utf-8"?>
<!-- Generator: Adobe Illustrator 16.0.1, SVG Export Plug-In . SVG Version: 6.00 Build 0)  -->
<!DOCTYPE svg PUBLIC "-//W3C//DTD SVG 1.1//EN" "http://www.w3.org/Graphics/SVG/1.1/DTD/svg11.dtd">
<svg version="1.1" id="Layer_1" xmlns="http://www.w3.org/2000/svg" xmlns:xlink="http://www.w3.org/1999/xlink" x="0px" y="0px"
	 width="129.809px" height="18.21px" viewBox="0 0 129.809 18.21" enable-background="new 0 0 129.809 18.21" xml:space="preserve">
<g>
	<path fill="#231F20" d="M10.247,3.714c1.032,0,1.863,0.83,1.863,1.863v7.552c0,1.033-0.832,1.864-1.863,1.864H4.421V3.714H10.247z
		 M6.876,5.949v6.808h2.608c0.102,0,0.169-0.068,0.169-0.17V6.118c0-0.102-0.067-0.169-0.169-0.169H6.876z"/>
	<path fill="#231F20" d="M13.567,3.443h2.337v2.522h-2.337V3.443z M13.567,6.966h2.337v8.027h-2.337V6.966z"/>
	<path fill="#231F20" d="M17.15,8.727c0-0.965,0.796-1.761,1.762-1.761h2.997c0.966,0,1.761,0.796,1.761,1.761v0.593l-2.185,0.321
		V9.116c0-0.102-0.067-0.17-0.169-0.17h-1.727c-0.103,0-0.169,0.051-0.169,0.17v0.355c0,0.102,0.034,0.136,0.119,0.169
		c0.339,0.102,1.186,0.356,3.048,0.915c0.83,0.254,1.152,0.694,1.152,1.541v1.135c0,0.965-0.695,1.762-1.762,1.762h-3.099
		c-1.016,0-1.761-0.797-1.761-1.762v-0.543l2.251-0.32v0.474c0,0.102,0.068,0.169,0.17,0.169h1.778c0.102,0,0.153-0.051,0.153-0.152
		v-0.423c0-0.103-0.034-0.137-0.119-0.17c-0.254-0.085-0.745-0.236-3.082-0.947c-0.644-0.204-1.118-0.796-1.118-1.508V8.727z"/>
	<path fill="#231F20" d="M31.846,13.231c0,0.965-0.796,1.762-1.761,1.762h-3.522c-0.965,0-1.761-0.797-1.761-1.762V8.727
		c0-0.965,0.796-1.761,1.761-1.761h3.522c0.965,0,1.761,0.796,1.761,1.761V13.231z M29.34,9.099h-2.032
		c-0.102,0-0.17,0.067-0.17,0.17v3.42c0,0.102,0.068,0.17,0.17,0.17h2.032c0.101,0,0.169-0.068,0.169-0.17v-3.42
		C29.509,9.166,29.441,9.099,29.34,9.099z"/>
	<path fill="#231F20" d="M37.743,9.031c-0.779,0.373-1.914,1.017-2.1,1.135c-0.085,0.051-0.17,0.118-0.17,0.271v4.556h-2.337V6.966
		h2.253v0.863c0.558-0.305,1.591-0.78,2.235-1.033L37.743,9.031z"/>
	<path fill="#231F20" d="M38.533,8.557c0-1.032,0.644-1.761,1.761-1.761c0.627,0,2.067,0.441,2.794,0.729V3.714l2.337-0.406v11.686
		h-2.252v-0.594c-0.711,0.288-2.236,0.762-2.879,0.762c-1.117,0-1.761-0.729-1.761-1.761V8.557z M43.088,9.742
		c0-0.102-0.067-0.186-0.169-0.22c-0.236-0.085-1.693-0.56-1.879-0.56c-0.102,0-0.169,0.068-0.169,0.17v3.692
		c0,0.102,0.068,0.169,0.169,0.169c0.187,0,1.643-0.475,1.879-0.559c0.103-0.034,0.169-0.119,0.169-0.22V9.742z"/>
	<path fill="#231F20" d="M53.406,12.706v0.525c0,0.965-0.796,1.762-1.761,1.762h-3.167c-0.965,0-1.761-0.797-1.761-1.762V8.727
		c0-0.965,0.795-1.761,1.761-1.761h3.1c0.965,0,1.76,0.796,1.76,1.761v2.947h-4.284v1.134c0,0.103,0.068,0.17,0.169,0.17h1.761
		c0.102,0,0.17-0.067,0.17-0.17v-0.509L53.406,12.706z M49.053,9.997h2.083V9.166c0-0.101-0.067-0.169-0.169-0.169h-1.744
		c-0.102,0-0.169,0.068-0.169,0.169V9.997z"/>
	<path fill="#231F20" d="M59.241,9.031c-0.779,0.373-1.914,1.017-2.101,1.135c-0.084,0.051-0.169,0.118-0.169,0.271v4.556h-2.336
		V6.966h2.251v0.863c0.559-0.305,1.592-0.78,2.236-1.033L59.241,9.031z"/>
	<path fill="#231F20" d="M60.114,3.714l2.336-0.406v11.686h-2.336V3.714z"/>
	<path fill="#231F20" d="M68.439,14.993l-1,3.217h-2.353l0.794-2.896l-2.59-8.348h2.336l1.491,5.419l1.49-5.419h2.336L68.439,14.993
		z"/>
	<path fill="#231F20" d="M79.681,11.233l1.609,0.27v1.626c0,1.033-0.831,1.864-1.863,1.864h-3.641c-1.032,0-1.847-0.831-1.847-1.864
		V5.577c0-1.033,0.814-1.863,1.847-1.863h3.641c1.032,0,1.863,0.83,1.863,1.863v1.541l-1.609,0.27V5.915
		c0-0.406-0.322-0.711-0.729-0.711h-2.676c-0.406,0-0.728,0.305-0.728,0.711v6.875c0,0.408,0.321,0.712,0.728,0.712h2.676
		c0.406,0,0.729-0.304,0.729-0.712V11.233z"/>
	<path fill="#231F20" d="M82.772,13.198V8.761c0-0.999,0.78-1.795,1.778-1.795h2.947c0.999,0,1.812,0.796,1.812,1.795v4.438
		c0,0.998-0.812,1.795-1.812,1.795H84.55C83.552,14.993,82.772,14.196,82.772,13.198z M87.751,9.099c0-0.406-0.321-0.71-0.727-0.71
		h-1.983c-0.406,0-0.711,0.304-0.711,0.71v3.76c0,0.406,0.305,0.711,0.711,0.711h1.983c0.405,0,0.727-0.305,0.727-0.711V9.099z"/>
	<path fill="#231F20" d="M90.812,14.993V6.966h1.524v0.575c1.033-0.44,2.285-0.745,3.015-0.745c1.134,0,1.812,0.745,1.812,1.795
		v6.402h-1.559V9.031c0-0.456-0.271-0.711-0.729-0.711c-0.49,0-1.202,0.221-1.796,0.457C92.693,8.93,92.37,9.133,92.37,9.505v5.488
		H90.812z"/>
	<path fill="#231F20" d="M104.983,3.443v11.55h-1.522v-0.577c-1.034,0.441-2.287,0.745-3.015,0.745
		c-1.135,0-1.812-0.745-1.812-1.795V8.591c0-1.05,0.678-1.795,1.812-1.795c0.728,0,1.964,0.305,2.98,0.729V3.714L104.983,3.443z
		 M103.426,9.455c0-0.356-0.321-0.56-0.712-0.711c-0.592-0.237-1.304-0.458-1.795-0.458c-0.457,0-0.729,0.255-0.729,0.711v3.963
		c0,0.458,0.271,0.711,0.729,0.711c0.491,0,1.203-0.219,1.795-0.457c0.391-0.153,0.712-0.355,0.712-0.728V9.455z"/>
	<path fill="#231F20" d="M112.897,6.966v8.027h-1.522v-0.577c-1.033,0.441-2.286,0.745-3.014,0.745
		c-1.136,0-1.812-0.745-1.812-1.795v-6.4h1.558v5.961c0,0.457,0.271,0.711,0.728,0.711c0.491,0,1.203-0.22,1.795-0.457
		c0.391-0.152,0.711-0.355,0.711-0.729V6.966H112.897z"/>
	<path fill="#231F20" d="M119.076,12.165l1.557,0.271v0.763c0,0.998-0.778,1.795-1.794,1.795h-2.659
		c-0.998,0-1.778-0.797-1.778-1.795V8.761c0-0.999,0.78-1.795,1.778-1.795h2.659c1.016,0,1.794,0.796,1.794,1.795v0.677
		l-1.557,0.271v-0.61c0-0.406-0.322-0.71-0.729-0.71h-1.676c-0.407,0-0.712,0.304-0.712,0.71v3.76c0,0.406,0.305,0.711,0.712,0.711
		h1.676c0.407,0,0.729-0.305,0.729-0.711V12.165z"/>
	<path fill="#231F20" d="M126.279,14.993h-1.678c-0.999,0-1.777-0.797-1.777-1.795V8.32h-1.254V6.966h1.254V5.035l1.558-0.254v2.185
		h2.134l-0.271,1.354h-1.863v4.59c0,0.406,0.322,0.728,0.729,0.728h1.169V14.993z"/>
</g>
</svg>
